<svg width="93" height="92" viewBox="0 0 93 92" fill="none" xmlns="http://www.w3.org/2000/svg">
<path d="M46.7474 91.9633C21.3524 91.9633 0.765747 71.3766 0.765747 45.9816C0.765747 20.5867 21.3524 0 46.7474 0C72.1423 0 92.729 20.5867 92.729 45.9816C92.729 71.3766 72.1423 91.9633 46.7474 91.9633Z" fill="#3F3D56"/>
<path opacity="0.1" d="M46.706 5.74977e-06C55.8059 -0.00454307 64.7027 2.69003 72.2709 7.74283C79.8391 12.7956 85.7386 19.9796 89.223 28.386C92.7075 36.7923 93.6204 46.0433 91.8462 54.9686C90.072 63.8938 85.6905 72.0924 79.2559 78.527C72.8213 84.9616 64.6227 89.3431 55.6975 91.1173C46.7722 92.8915 37.5212 91.9786 29.1149 88.4941C20.7085 85.0096 13.5245 79.1101 8.47175 71.5419C3.41895 63.9737 0.724373 55.077 0.72892 45.977C0.735016 33.785 5.58096 22.0941 14.202 13.4731C22.8231 4.85205 34.514 0.00610023 46.706 5.74977e-06ZM46.706 85.8453C54.5911 85.8453 62.2993 83.507 68.8556 79.1263C75.4119 74.7455 80.5219 68.5189 83.5394 61.234C86.5569 53.949 87.3464 45.9328 85.8081 38.1991C84.2698 30.4654 80.4727 23.3616 74.8971 17.7859C69.3214 12.2103 62.2176 8.41319 54.4839 6.87487C46.7502 5.33654 38.734 6.12606 31.449 9.14359C24.1641 12.1611 17.9375 17.2711 13.5567 23.8274C9.17596 30.3837 6.83774 38.0919 6.83774 45.977C6.83774 56.5508 11.0381 66.6914 18.5149 74.1681C25.9916 81.6449 36.1322 85.8453 46.706 85.8453Z" fill="black"/>
<path d="M20.6512 29.9976L34.4191 44.0046C34.4433 44.0278 34.4625 44.0557 34.4757 44.0865C34.4888 44.1173 34.4956 44.1505 34.4956 44.184C34.4956 44.2176 34.4888 44.2507 34.4757 44.2816C34.4625 44.3124 34.4433 44.3402 34.4191 44.3634L24.759 54.6352C24.528 54.8681 24.3708 55.164 24.3073 55.4858C24.2438 55.8077 24.2767 56.1411 24.402 56.4443C24.5273 56.7475 24.7394 57.0069 25.0116 57.19C25.2838 57.3731 25.604 57.4717 25.932 57.4734C26.3735 57.4725 26.7967 57.2973 27.1096 56.9858L36.7191 46.7508C36.7681 46.7025 36.8342 46.6754 36.9031 46.6754C36.9719 46.6754 37.038 46.7025 37.0871 46.7508L39.4285 49.1152C40.3871 50.0956 41.532 50.8745 42.796 51.4061C44.0599 51.9377 45.4173 52.2114 46.7885 52.211C48.1856 52.2045 49.5674 51.9197 50.8533 51.3732C52.1391 50.8266 53.3031 50.0293 54.2773 49.0278L56.5267 46.7278C56.5757 46.6795 56.6418 46.6524 56.7107 46.6524C56.7795 46.6524 56.8456 46.6795 56.8947 46.7278L66.4811 56.9398C66.6353 57.0944 66.8185 57.217 67.0202 57.3006C67.2219 57.3842 67.4381 57.4273 67.6564 57.4273C67.8747 57.4273 68.0909 57.3842 68.2926 57.3006C68.4942 57.217 68.6774 57.0944 68.8317 56.9398C68.9868 56.7859 69.1098 56.6028 69.1938 56.4011C69.2778 56.1994 69.321 55.9831 69.321 55.7645C69.321 55.546 69.2778 55.3297 69.1938 55.128C69.1098 54.9263 68.9868 54.7432 68.8317 54.5893L59.2085 44.3404C59.1657 44.2904 59.1422 44.2268 59.1422 44.161C59.1422 44.0952 59.1657 44.0316 59.2085 43.9816L72.9763 29.9746C73.0117 29.939 73.0568 29.9148 73.1061 29.9049C73.1553 29.8951 73.2063 29.9001 73.2526 29.9193C73.299 29.9386 73.3386 29.9711 73.3664 30.0129C73.3942 30.0547 73.4089 30.1039 73.4087 30.154V58.1819C73.4051 59.2653 72.973 60.3033 72.2069 61.0695C71.4408 61.8356 70.4027 62.2676 69.3193 62.2712H24.299C23.2156 62.2676 22.1775 61.8356 21.4114 61.0695C20.6453 60.3033 20.2133 59.2653 20.2096 58.1819V30.177C20.2074 30.1249 20.2213 30.0733 20.2495 30.0293C20.2777 29.9854 20.3188 29.9512 20.3672 29.9316C20.4155 29.9119 20.4688 29.9078 20.5197 29.9196C20.5705 29.9314 20.6165 29.9587 20.6512 29.9976Z" fill="#6C63FF"/>
<path d="M46.5315 49.6202C45.5982 49.6294 44.6727 49.4508 43.8098 49.0952C42.9468 48.7396 42.1642 48.2142 41.5083 47.5502L21.4569 27.14C22.1687 26.5504 23.0626 26.2253 23.9869 26.22H69.0393C69.964 26.223 70.8587 26.5484 71.5693 27.14L51.5133 47.5502C50.8633 48.2105 50.0875 48.7338 49.2319 49.0893C48.3763 49.4449 47.4581 49.6254 46.5315 49.6202Z" fill="#6C63FF"/>
</svg>
