<svg width="195" height="195" viewBox="0 0 195 195" fill="none" xmlns="http://www.w3.org/2000/svg">
<path d="M97.5 195C123.359 195 148.158 184.728 166.443 166.443C184.728 148.158 195 123.359 195 97.5C195 71.6414 184.728 46.8419 166.443 28.5571C148.158 10.2723 123.359 0 97.5 0C71.6414 0 46.8419 10.2723 28.5571 28.5571C10.2723 46.8419 0 71.6414 0 97.5C0 123.359 10.2723 148.158 28.5571 166.443C46.8419 184.728 71.6414 195 97.5 195ZM50.5294 62.7169C51.0954 62.1494 51.7679 61.6991 52.5082 61.3919C53.2485 61.0847 54.0422 60.9266 54.8438 60.9266C55.6453 60.9266 56.439 61.0847 57.1793 61.3919C57.9196 61.6991 58.5921 62.1494 59.1581 62.7169L67.0312 70.6022L74.9044 62.7169C75.4709 62.1503 76.1436 61.7009 76.8838 61.3942C77.6241 61.0876 78.4175 60.9298 79.2188 60.9298C80.02 60.9298 80.8134 61.0876 81.5537 61.3942C82.2939 61.7009 82.9666 62.1503 83.5331 62.7169C84.0997 63.2834 84.5491 63.9561 84.8558 64.6963C85.1624 65.4366 85.3202 66.23 85.3202 67.0312C85.3202 67.8325 85.1624 68.6259 84.8558 69.3662C84.5491 70.1064 84.0997 70.7791 83.5331 71.3456L75.6478 79.2188L83.5331 87.0919C84.0997 87.6584 84.5491 88.3311 84.8558 89.0713C85.1624 89.8116 85.3202 90.605 85.3202 91.4062C85.3202 92.2075 85.1624 93.0009 84.8558 93.7412C84.5491 94.4814 84.0997 95.1541 83.5331 95.7206C82.9666 96.2872 82.2939 96.7366 81.5537 97.0433C80.8134 97.3499 80.02 97.5077 79.2188 97.5077C78.4175 97.5077 77.6241 97.3499 76.8838 97.0433C76.1436 96.7366 75.4709 96.2872 74.9044 95.7206L67.0312 87.8353L59.1581 95.7206C58.5916 96.2872 57.9189 96.7366 57.1787 97.0433C56.4384 97.3499 55.645 97.5077 54.8438 97.5077C54.0425 97.5077 53.2491 97.3499 52.5088 97.0433C51.7686 96.7366 51.0959 96.2872 50.5294 95.7206C49.9628 95.1541 49.5134 94.4814 49.2067 93.7412C48.9001 93.0009 48.7423 92.2075 48.7423 91.4062C48.7423 90.605 48.9001 89.8116 49.2067 89.0713C49.5134 88.3311 49.9628 87.6584 50.5294 87.0919L58.4147 79.2188L50.5294 71.3456C49.9619 70.7796 49.5116 70.1071 49.2044 69.3668C48.8972 68.6265 48.7391 67.8328 48.7391 67.0312C48.7391 66.2297 48.8972 65.436 49.2044 64.6957C49.5116 63.9554 49.9619 63.2829 50.5294 62.7169ZM111.467 62.7169C112.033 62.1494 112.705 61.6991 113.446 61.3919C114.186 61.0847 114.98 60.9266 115.781 60.9266C116.583 60.9266 117.376 61.0847 118.117 61.3919C118.857 61.6991 119.53 62.1494 120.096 62.7169L127.969 70.6022L135.842 62.7169C136.986 61.5726 138.538 60.9298 140.156 60.9298C141.774 60.9298 143.326 61.5726 144.471 62.7169C145.615 63.8611 146.258 65.413 146.258 67.0312C146.258 68.6495 145.615 70.2014 144.471 71.3456L136.585 79.2188L144.471 87.0919C145.615 88.2361 146.258 89.788 146.258 91.4062C146.258 93.0245 145.615 94.5764 144.471 95.7206C143.326 96.8649 141.774 97.5077 140.156 97.5077C138.538 97.5077 136.986 96.8649 135.842 95.7206L127.969 87.8353L120.096 95.7206C119.529 96.2872 118.856 96.7366 118.116 97.0433C117.376 97.3499 116.583 97.5077 115.781 97.5077C114.98 97.5077 114.187 97.3499 113.446 97.0433C112.706 96.7366 112.033 96.2872 111.467 95.7206C110.9 95.1541 110.451 94.4814 110.144 93.7412C109.838 93.0009 109.68 92.2075 109.68 91.4062C109.68 90.605 109.838 89.8116 110.144 89.0713C110.451 88.3311 110.9 87.6584 111.467 87.0919L119.352 79.2188L111.467 71.3456C110.899 70.7796 110.449 70.1071 110.142 69.3668C109.835 68.6265 109.677 67.8328 109.677 67.0312C109.677 66.2297 109.835 65.436 110.142 64.6957C110.449 63.9554 110.899 63.2829 111.467 62.7169ZM97.5 158.438C91.0353 158.438 84.8355 155.869 80.2643 151.298C75.6931 146.727 73.125 140.527 73.125 134.062C73.125 127.598 75.6931 121.398 80.2643 116.827C84.8355 112.256 91.0353 109.688 97.5 109.688C103.965 109.688 110.165 112.256 114.736 116.827C119.307 121.398 121.875 127.598 121.875 134.062C121.875 140.527 119.307 146.727 114.736 151.298C110.165 155.869 103.965 158.438 97.5 158.438Z" fill="#6a62f5"/>
</svg>
