<svg width="751" height="566" viewBox="0 0 751 566" fill="none" xmlns="http://www.w3.org/2000/svg">
<path opacity="0.1" d="M436.338 108.643C388.194 106.937 342.336 91.0319 298.552 73.6327C254.768 56.2336 211.39 36.9491 164.403 27.7284C134.176 21.8004 99.6105 20.9639 75.2595 37.5399C51.819 53.472 44.2492 81.0478 40.1818 106.579C37.118 125.83 35.317 146.044 43.7042 164.047C49.5328 176.547 59.8806 187.049 67.0384 199.018C91.9277 240.674 74.349 292.041 47.3529 332.715C34.7255 351.793 20.0178 369.996 10.2548 390.302C0.491827 410.609 -4.02746 433.883 4.51267 454.602C12.9863 475.141 33.1636 490.562 55.0224 501.409C99.4244 523.448 151.749 529.755 202.77 533.326C315.712 541.232 429.26 537.807 542.501 534.382C584.411 533.107 626.5 531.826 667.732 525.194C690.621 521.51 714.254 515.668 730.869 501.555C751.97 483.631 757.201 453.314 743.058 430.856C719.365 393.197 653.789 383.85 637.213 343.409C628.088 321.157 637.459 296.37 650.718 275.698C679.163 231.427 726.842 192.585 729.354 141.975C731.082 107.216 708.16 72.4046 672.723 55.9614C635.572 38.7016 584.065 40.8923 556.657 69.424C528.438 98.8518 478.846 110.157 436.338 108.643Z" fill="#6C63FF"/>
<path opacity="0.1" d="M451.152 565.993C485.122 565.993 512.661 561.868 512.661 556.779C512.661 551.69 485.122 547.565 451.152 547.565C417.181 547.565 389.643 551.69 389.643 556.779C389.643 561.868 417.181 565.993 451.152 565.993Z" fill="#6C63FF"/>
<path d="M428.316 540.157L309.891 538.643L310.243 535.61L315.965 485.563H419.968L427.618 535.61L428.203 539.4L428.316 540.157Z" fill="#D0D2D5"/>
<path opacity="0.1" d="M428.203 539.4H369.107L309.891 538.643L310.243 535.61H427.618L428.203 539.4Z" fill="black"/>
<path d="M447.297 536.366H290.152V540.157H447.297V536.366Z" fill="#D0D2D5"/>
<path d="M597.224 184.978C597.231 183.681 596.982 182.396 596.492 181.195C596.001 179.994 595.279 178.902 594.365 177.98C593.452 177.058 592.365 176.326 591.168 175.823C589.971 175.321 588.687 175.06 587.388 175.054H148.538C145.917 175.068 143.408 176.121 141.564 177.982C139.719 179.843 138.69 182.359 138.702 184.978V450.685H597.224V184.978Z" fill="#444053"/>
<path d="M138.702 448.03V479.15C138.702 481.756 139.739 484.255 141.583 486.098C143.428 487.94 145.93 488.975 148.539 488.975H587.388C588.68 488.976 589.96 488.722 591.153 488.229C592.347 487.736 593.432 487.012 594.345 486.099C595.259 485.187 595.983 484.104 596.477 482.911C596.971 481.719 597.225 480.441 597.224 479.15V448.03H138.702Z" fill="#D0D2D5"/>
<path d="M580.523 191.736H157.683V430.591H580.523V191.736Z" fill="white"/>
<path d="M370.243 477.172C371.795 477.172 373.328 476.821 374.724 476.143C376.121 475.466 377.345 474.481 378.305 473.262C378.598 472.889 378.864 472.497 379.102 472.087L373.506 471.158L379.587 471.204C380.171 469.936 380.488 468.563 380.522 467.168C380.555 465.773 380.302 464.386 379.78 463.092L371.625 467.321L379.149 461.798C378.436 460.596 377.485 459.553 376.354 458.733C375.223 457.912 373.936 457.332 372.572 457.027C371.208 456.721 369.796 456.698 368.422 456.958C367.049 457.218 365.743 457.757 364.586 458.539C363.428 459.322 362.444 460.333 361.692 461.51C360.94 462.688 360.437 464.006 360.215 465.384C359.992 466.763 360.054 468.172 360.397 469.526C360.739 470.879 361.356 472.149 362.208 473.255C363.164 474.472 364.384 475.456 365.776 476.134C367.167 476.813 368.695 477.167 370.243 477.172Z" fill="#6C63FF"/>
<path opacity="0.1" d="M380.491 488.975L427.738 536.366L420.487 488.975H380.491Z" fill="black"/>
<path opacity="0.1" d="M580.649 191.762H157.351V205.716H580.649V191.762Z" fill="#444053"/>
<path d="M171.407 194.192H160.295C160.009 194.192 159.777 194.424 159.777 194.71V202.165C159.777 202.451 160.009 202.682 160.295 202.682H171.407C171.694 202.682 171.926 202.451 171.926 202.165V194.71C171.926 194.424 171.694 194.192 171.407 194.192Z" fill="#6C63FF"/>
<path opacity="0.3" d="M431.473 194.192H304.707C304.494 194.192 304.321 194.364 304.321 194.577V202.297C304.321 202.51 304.494 202.682 304.707 202.682H431.473C431.686 202.682 431.858 202.51 431.858 202.297V194.577C431.858 194.364 431.686 194.192 431.473 194.192Z" fill="#6C63FF"/>
<path d="M428.07 199.31H427.758L427.645 199.217C428.031 198.753 428.245 198.168 428.249 197.564C428.247 197.067 428.097 196.581 427.818 196.169C427.539 195.756 427.143 195.436 426.682 195.248C426.221 195.06 425.714 195.013 425.226 195.113C424.738 195.212 424.291 195.454 423.94 195.808C423.59 196.162 423.352 196.611 423.258 197.1C423.163 197.588 423.216 198.094 423.409 198.553C423.602 199.011 423.927 199.403 424.342 199.677C424.758 199.951 425.246 200.096 425.744 200.093C426.346 200.084 426.927 199.871 427.392 199.489L427.505 199.582V199.894L429.452 201.839L430.031 201.255L428.07 199.31ZM425.744 199.31C425.396 199.311 425.056 199.21 424.767 199.018C424.477 198.825 424.251 198.552 424.118 198.231C423.984 197.911 423.949 197.558 424.016 197.217C424.084 196.877 424.251 196.564 424.497 196.318C424.742 196.073 425.056 195.906 425.397 195.838C425.738 195.771 426.091 195.806 426.412 195.94C426.733 196.073 427.007 196.299 427.199 196.588C427.391 196.877 427.493 197.217 427.492 197.564C427.494 197.794 427.45 198.022 427.362 198.234C427.275 198.447 427.146 198.64 426.984 198.803C426.821 198.965 426.628 199.094 426.415 199.181C426.202 199.268 425.974 199.312 425.744 199.31Z" fill="#444053"/>
<path d="M574.575 202.682C576.924 202.682 578.828 200.78 578.828 198.434C578.828 196.087 576.924 194.185 574.575 194.185C572.226 194.185 570.321 196.087 570.321 198.434C570.321 200.78 572.226 202.682 574.575 202.682Z" fill="#6C63FF"/>
<path opacity="0.1" d="M465.946 258.929H272.141C265.429 258.929 259.986 264.001 259.986 270.254V376.813C259.986 383.067 265.429 388.138 272.141 388.138H465.946C472.658 388.138 478.101 383.067 478.101 376.813V270.254C478.101 264.001 472.658 258.929 465.946 258.929Z" fill="black"/>
<path d="M458.409 252.862H279.804C272.951 252.862 267.396 258.411 267.396 265.256V369.677C267.396 376.522 272.951 382.071 279.804 382.071H458.409C465.262 382.071 470.817 376.522 470.817 369.677V265.256C470.817 258.411 465.262 252.862 458.409 252.862Z" fill="#454B69"/>
<path opacity="0.3" d="M317.912 325.539H291.953C290.191 325.539 288.763 326.965 288.763 328.725V333.312C288.763 335.072 290.191 336.499 291.953 336.499H317.912C319.674 336.499 321.102 335.072 321.102 333.312V328.725C321.102 326.965 319.674 325.539 317.912 325.539Z" fill="#6C63FF"/>
<path opacity="0.3" d="M361.224 325.539H335.265C333.503 325.539 332.075 326.965 332.075 328.725V333.312C332.075 335.072 333.503 336.499 335.265 336.499H361.224C362.986 336.499 364.414 335.072 364.414 333.312V328.725C364.414 326.965 362.986 325.539 361.224 325.539Z" fill="#6C63FF"/>
<path opacity="0.3" d="M375.081 348.036H353.163C351.401 348.036 349.973 349.463 349.973 351.223V352.922C349.973 354.682 351.401 356.108 353.163 356.108H375.081C376.843 356.108 378.271 354.682 378.271 352.922V351.223C378.271 349.463 376.843 348.036 375.081 348.036Z" fill="#6C63FF"/>
<path opacity="0.3" d="M404.536 325.539H378.577C376.815 325.539 375.387 326.965 375.387 328.725V333.312C375.387 335.072 376.815 336.499 378.577 336.499H404.536C406.298 336.499 407.727 335.072 407.727 333.312V328.725C407.727 326.965 406.298 325.539 404.536 325.539Z" fill="#6C63FF"/>
<path opacity="0.3" d="M447.849 325.539H421.889C420.127 325.539 418.699 326.965 418.699 328.725V333.312C418.699 335.072 420.127 336.499 421.889 336.499H447.849C449.61 336.499 451.039 335.072 451.039 333.312V328.725C451.039 326.965 449.61 325.539 447.849 325.539Z" fill="#6C63FF"/>
<path d="M311.632 299.583H293.608C292.525 299.583 291.647 300.459 291.647 301.541V319.544C291.647 320.626 292.525 321.502 293.608 321.502H311.632C312.715 321.502 313.592 320.626 313.592 319.544V301.541C313.592 300.459 312.715 299.583 311.632 299.583Z" fill="#6C63FF"/>
<path d="M306.229 314.147H299.303V307.23H306.229V314.147ZM299.583 313.862H305.936V307.515H299.583V313.862Z" fill="#454B69"/>
<path d="M302.906 299.583H302.62V307.369H302.906V299.583Z" fill="#454B69"/>
<path d="M302.906 314.001H302.62V321.503H302.906V314.001Z" fill="#454B69"/>
<path d="M299.443 310.396H291.647V310.682H299.443V310.396Z" fill="#454B69"/>
<path d="M313.599 310.396H306.089V310.682H313.599V310.396Z" fill="#454B69"/>
<path d="M299.343 307.476L297.077 305.225H291.647V304.933H297.197L299.549 307.27L299.343 307.476Z" fill="#454B69"/>
<path d="M306.182 307.476L305.989 307.263L308.628 304.933H313.592V305.225H308.741L306.182 307.476Z" fill="#454B69"/>
<path d="M297.203 316.809H291.647V316.517H297.07L299.337 313.908L299.556 314.101L297.203 316.809Z" fill="#454B69"/>
<path d="M313.592 316.809H308.621L305.983 314.107L306.189 313.902L308.747 316.517H313.592V316.809Z" fill="#454B69"/>
<path d="M347.394 262.813H291.341C289.837 262.813 288.617 264.031 288.617 265.534V271.051C288.617 272.554 289.837 273.773 291.341 273.773H347.394C348.899 273.773 350.119 272.554 350.119 271.051V265.534C350.119 264.031 348.899 262.813 347.394 262.813Z" fill="#6C63FF"/>
<path d="M481.032 433.485C480.992 432.343 480.853 431.201 480.713 430.066C480.201 425.804 479.676 421.543 478.846 417.341C478.699 416.521 478.476 415.716 478.181 414.937C477.882 414.201 477.47 413.524 477.157 412.793C477.16 412.767 477.16 412.74 477.157 412.714C477.543 412.528 477.922 412.342 478.294 412.143C478.563 412.006 478.821 411.849 479.065 411.671C479.31 411.494 479.516 411.268 479.67 411.008C480.334 409.839 479.59 408.352 479.251 407.025C478.892 405.597 478.972 403.885 477.922 402.929C474.173 399.609 476.034 392.838 474.16 388.085C473.828 387.256 473.449 386.439 473.163 385.589C472.944 384.925 472.791 384.262 472.632 383.598C471.302 378.066 469.902 372.558 468.431 367.075C466.883 361.392 467.049 355.471 465.108 349.921C464.742 348.771 464.263 347.659 463.679 346.602C463.03 345.501 462.15 344.552 461.101 343.821C458.269 341.869 455.418 340.203 452.095 339.492C448.772 338.782 445.183 338.895 441.794 338.908C440.58 337.226 438.911 335.925 436.982 335.158L436.922 334.985C436.651 334.313 436.442 333.617 436.298 332.907C436.189 332.204 436.134 331.494 436.132 330.783C436.132 330.02 436.098 329.25 436.078 328.486L436.265 328.307C436.709 327.838 437.118 327.337 437.487 326.807C437.843 326.306 438.155 325.775 438.418 325.22C438.716 324.59 438.969 323.94 439.175 323.275C439.58 321.93 439.853 320.55 439.993 319.153C440.172 317.513 440.226 315.833 440.272 314.194C440.272 313.862 440.272 313.53 440.272 313.191V312.946C440.272 312.68 440.272 312.421 440.272 312.162V312.076C440.327 310.381 439.899 308.705 439.036 307.243C437.833 305.451 435.773 304.588 433.786 303.871C429.798 302.49 425.418 301.581 421.477 303.061C418.347 304.243 415.848 306.818 412.758 308.126C412.828 308.244 412.893 308.366 412.95 308.491C412.951 308.509 412.951 308.527 412.95 308.544C413.003 308.664 413.05 308.777 413.09 308.896C413.19 309.165 413.264 309.443 413.309 309.726C413.399 310.262 413.399 310.81 413.309 311.346C412.376 311.763 411.346 311.915 410.332 311.784C410.714 313.034 411.353 314.192 412.206 315.183C412.478 315.528 412.764 315.847 413.037 316.212L413.455 316.73C414.168 317.564 414.748 318.502 415.177 319.511C415.334 319.91 415.443 320.327 415.502 320.752C415.629 321.595 415.595 322.565 415.708 323.408C415.751 323.77 415.843 324.125 415.981 324.463C416.235 326.212 416.903 327.875 417.93 329.315C418.956 330.755 420.311 331.929 421.883 332.741C422.315 335.366 422.315 338.043 421.883 340.667C421.883 340.814 421.829 340.96 421.796 341.106C419.988 343.383 418.254 345.786 416.027 347.565C415.015 348.357 413.931 349.055 412.791 349.649C412.121 350.035 411.404 350.332 410.657 350.532C409.82 350.725 408.943 350.698 408.112 350.904C406.507 351.413 405.156 352.511 404.33 353.977C403.91 354.752 403.444 355.502 402.935 356.221C402.47 356.799 401.885 357.27 401.393 357.821C399.612 359.813 399.127 362.694 398.734 365.389C397.349 366.917 395.83 368.319 394.195 369.578C393.684 369.984 393.115 370.313 392.507 370.553C390.939 371.078 389.217 370.407 387.855 369.398C386.493 368.389 385.429 367.062 384.113 366.026L383.768 366.537C383.669 366.44 383.578 366.336 383.495 366.225C382.956 365.466 382.582 364.602 382.399 363.689C381.92 361.24 382.824 358.618 382.119 356.234C381.86 355.371 381.236 354.482 380.372 354.502C379.508 354.522 378.969 355.385 378.225 355.79C377.029 356.454 375.566 355.849 374.383 355.192C373.2 354.535 371.851 353.798 370.555 354.19C370.53 354.617 370.607 355.045 370.779 355.437C370.951 355.829 371.214 356.175 371.546 356.447C372.213 356.975 372.761 357.637 373.154 358.392C373.348 359.216 373.422 360.063 373.373 360.908C373.506 362.846 374.702 364.512 375.859 366.026C377.294 367.863 378.796 369.646 380.365 371.377C380.177 371.706 379.881 371.962 379.527 372.1C379.438 372.415 379.438 372.748 379.527 373.063C379.593 373.28 379.678 373.491 379.78 373.693C379.933 374.005 380.119 374.311 380.278 374.596L382.611 378.692L382.99 379.356C383.15 379.635 383.309 379.9 383.475 380.172C384.025 381.126 384.678 382.016 385.422 382.828C385.794 383.218 386.203 383.569 386.645 383.877C386.933 384.083 387.238 384.265 387.556 384.421C388 384.648 388.475 384.811 388.965 384.906C389.205 384.957 389.45 384.988 389.696 384.998C389.95 385.018 390.206 385.018 390.46 384.998C391.226 384.892 391.978 384.698 392.7 384.421C397.146 382.861 401.227 380.372 405.454 378.254C406.035 377.929 406.659 377.688 407.308 377.537C407.527 377.495 407.75 377.477 407.972 377.484C408.198 377.491 408.422 377.529 408.637 377.597C408.849 377.668 409.051 377.768 409.235 377.895C409.608 378.146 409.868 378.532 409.96 378.971C410.086 379.635 410.206 380.252 410.325 380.889C410.445 381.527 410.578 382.164 410.711 382.801C410.976 384.069 411.262 385.337 411.595 386.592C411.774 387.256 411.947 387.959 412.12 388.65C412.545 390.336 412.964 392.035 413.349 393.735C413.469 394.266 413.582 394.803 413.688 395.334C413.886 396.279 414.028 397.234 414.113 398.196C414.116 398.218 414.116 398.24 414.113 398.262C414.18 399.098 414.186 399.928 414.193 400.765V403.387L414.26 411.127C414.26 412.242 413.661 412.939 413.19 413.942C413.097 414.148 413.01 414.36 412.937 414.572C412.848 414.842 412.774 415.117 412.718 415.396C412.718 415.482 412.678 415.575 412.665 415.661C412.651 415.747 412.665 415.867 412.625 415.966C412.585 416.066 412.625 416.166 412.591 416.259C412.558 416.351 412.591 416.458 412.591 416.551C412.591 416.644 412.591 416.763 412.591 416.869C412.591 416.975 412.591 417.055 412.591 417.141C412.591 417.228 412.591 417.374 412.591 417.487C412.591 417.599 412.591 417.653 412.591 417.732C412.591 417.812 412.638 417.991 412.658 418.124L412.698 418.323C412.744 418.516 412.791 418.708 412.857 418.901C412.99 419.299 413.156 419.691 413.329 420.076C413.502 420.461 413.675 420.852 413.821 421.251C413.914 421.503 413.994 421.76 414.06 422.021C414.077 422.08 414.09 422.139 414.1 422.2C414.153 422.406 414.2 422.611 414.24 422.824V422.97C414.279 423.196 414.313 423.428 414.339 423.634C414.343 423.66 414.343 423.687 414.339 423.713C414.339 423.972 414.392 424.231 414.406 424.49C414.466 425.433 414.452 426.395 414.406 427.345L414.326 432.071V432.217C414.319 432.365 414.351 432.511 414.419 432.642C414.467 432.716 414.533 432.778 414.611 432.819C414.689 432.861 414.776 432.882 414.864 432.881C415.201 432.857 415.523 432.732 415.788 432.522L417.902 430.989H418.035C416.366 433.717 415.031 436.725 414.771 439.931C414.671 442.048 414.807 444.17 415.177 446.257C417.124 460.198 421.71 474.265 420.746 488.338C420.367 493.881 422.667 499.285 422.653 504.834C422.653 506.992 422.288 509.129 422.195 511.28C421.79 520.521 426.508 529.867 424.587 538.896C425.252 541.139 427.771 542.334 428.482 544.565C429.08 546.457 428.216 548.468 427.518 550.32C427.267 550.966 427.074 551.632 426.94 552.312C425.006 552.312 422.86 552.352 421.57 552.889C421.213 553.006 420.864 553.148 420.527 553.314C419.337 554.024 419.257 555.969 420.008 557.144C420.759 558.319 424.98 562.07 426.216 562.688L428.921 564.015C430.372 564.835 431.941 565.426 433.573 565.768C434.946 565.92 436.334 565.894 437.7 565.688C438.757 565.575 439.926 565.403 440.611 564.54C441.575 563.318 441.083 561.333 440.425 559.567C440.668 559.374 440.856 559.12 440.97 558.831C441.087 558.368 441.147 557.893 441.149 557.417C441.344 556.494 441.662 555.601 442.093 554.761C443.203 552.059 443.156 549.019 443.09 546.078C443.102 541.297 442.773 536.521 442.106 531.786C441.774 529.794 441.322 527.803 440.937 525.811C439.518 518.599 438.91 511.252 439.122 503.905C439.146 502.121 438.898 500.343 438.385 498.634C438.167 497.647 438.108 496.632 438.212 495.627L439.009 483.472C439.236 481 439.274 478.515 439.122 476.037C439.009 474.709 438.79 473.382 438.657 472.054C438.455 469.523 438.413 466.982 438.531 464.446C438.604 461.718 438.73 458.79 440.292 456.6C440.372 456.459 440.478 456.336 440.606 456.237C440.734 456.137 440.88 456.065 441.036 456.022C441.355 455.976 441.448 456.407 441.329 456.686C441.495 457.191 441.668 457.689 441.841 458.193C441.894 458.339 441.94 458.478 441.993 458.618C442.08 458.877 442.173 459.136 442.266 459.395C442.359 459.653 442.399 459.753 442.459 459.932L442.718 460.596C442.791 460.795 442.871 460.988 442.944 461.18C443.017 461.373 443.11 461.599 443.196 461.804C443.283 462.01 443.369 462.216 443.462 462.422C443.555 462.627 443.622 462.8 443.708 462.993L444.027 463.656C444.107 463.822 444.187 463.995 444.273 464.161C444.359 464.327 444.532 464.646 444.665 464.885C444.738 465.024 444.811 465.163 444.891 465.296C445.104 465.668 445.323 466.026 445.556 466.385C446.008 467.049 446.493 467.712 446.885 468.423C447.023 468.656 447.148 468.898 447.257 469.146C447.625 470.063 447.916 471.009 448.128 471.974C448.36 472.851 448.633 473.707 448.932 474.55C449.231 475.393 449.596 476.236 449.922 477.059C450.102 477.471 450.288 477.882 450.474 478.287C451.032 479.515 451.637 480.724 452.248 481.919C452.355 482.13 452.44 482.353 452.501 482.582C452.531 482.694 452.556 482.807 452.574 482.921C452.598 483.142 452.598 483.364 452.574 483.585C452.566 483.723 452.549 483.861 452.521 483.996C452.481 484.201 452.421 484.401 452.341 484.594C451.524 486.459 452.182 488.298 452.541 490.13C452.854 492.061 453.006 494.016 452.993 495.972C452.993 496.636 452.993 497.3 453.052 497.917C453.052 498.727 453.052 499.53 453.099 500.34C453.145 501.15 453.099 502.079 453.145 502.949C453.16 503.82 453.125 504.691 453.039 505.558C453.039 505.863 452.959 506.162 452.913 506.461C452.767 507.357 452.561 508.246 452.381 509.116C451.717 512.616 451.41 516.175 451.464 519.737C451.464 521.167 451.51 522.598 451.604 524.032C451.683 525.473 451.796 526.907 451.923 528.347C451.989 529.137 452.069 529.927 452.149 530.717C452.281 532.085 452.428 533.452 452.574 534.82C452.72 536.187 452.88 537.694 453.019 539.121C453.159 540.549 453.285 541.976 453.385 543.396C453.447 544.101 453.299 544.807 452.959 545.428C452.825 545.674 452.714 545.931 452.627 546.198C452.565 546.382 452.516 546.571 452.481 546.762C452.442 546.982 452.415 547.203 452.401 547.426C452.385 547.892 452.411 548.359 452.481 548.82C452.516 549.05 452.556 549.271 452.6 549.484C452.7 549.942 452.82 550.4 452.939 550.851C453.213 552.102 453.661 553.309 454.269 554.436C454.398 554.668 454.545 554.89 454.707 555.1C454.754 555.166 454.807 555.226 454.86 555.292C454.997 555.452 455.124 555.621 455.239 555.797C455.293 555.879 455.34 555.965 455.378 556.056C455.515 556.423 455.543 556.822 455.458 557.204C455.385 557.603 455.246 558.001 455.139 558.379L455.485 558.426C455 559.959 454.774 561.532 455.591 562.561C456.256 563.424 457.445 563.597 458.502 563.71C459.868 563.921 461.256 563.95 462.629 563.796C464.261 563.454 465.83 562.863 467.281 562.044L469.986 560.716C471.223 560.099 475.436 556.374 476.187 555.166C476.938 553.958 476.852 552.053 475.675 551.343C475.339 551.173 474.99 551.029 474.632 550.911C473.436 550.413 471.502 550.367 469.694 550.34C469.601 549.676 469.548 548.953 469.521 548.269C469.4 545.728 469.449 543.182 469.667 540.648C469.82 538.849 470.053 537.057 470.033 535.258C470.033 532.855 469.534 530.478 469.275 528.088C469.016 525.699 468.99 523.362 468.95 520.999C468.89 517.52 469.913 514.208 470.359 510.769L471.136 504.721C471.267 503.987 471.285 503.237 471.189 502.497C471.07 501.834 470.764 501.17 470.638 500.506C470.365 498.999 471.05 497.505 471.262 495.985C471.508 494.239 471.13 492.467 470.884 490.714C470.561 487.947 470.408 485.163 470.425 482.377C470.186 465.25 469.701 447.738 463.905 431.713C463.673 431.049 463.42 430.385 463.161 429.768C463.278 429.736 463.393 429.698 463.507 429.655C463.687 429.588 463.859 429.499 464.018 429.389C464.089 429.347 464.156 429.298 464.218 429.243C464.403 429.059 464.538 428.83 464.61 428.579C464.688 428.337 464.728 428.084 464.729 427.829C464.721 427.38 464.656 426.934 464.537 426.501L464.457 426.229C464.324 425.778 464.178 425.333 464.025 424.902C463.879 424.47 463.719 424.052 463.553 423.627C463.207 422.84 462.927 422.025 462.716 421.191C462.31 419.306 462.716 417.128 461.579 415.595C459.067 412.156 460.842 406.872 459.791 402.683C459.446 401.355 458.941 400.028 458.622 398.7C458.422 397.85 458.296 396.981 458.17 396.111C457.837 394.231 457.673 392.325 457.678 390.415C457.678 389.459 457.824 388.504 457.937 387.554L458.735 380.969C459.626 382.673 460.262 384.498 460.622 386.386C460.682 386.658 460.735 386.924 460.795 387.196C461.514 390.444 462.401 393.652 463.453 396.808C464.058 398.713 464.656 400.612 465.308 402.497C465.5 403.035 465.686 403.579 465.859 404.13C466.029 404.681 466.162 405.242 466.258 405.81C466.331 406.261 466.364 406.726 466.398 407.184C466.431 407.642 466.457 408.113 466.504 408.571C466.721 410.532 467.38 412.418 468.431 414.088C468.464 414.13 468.496 414.175 468.524 414.221C468.703 414.543 468.99 414.792 469.335 414.924C469.574 414.974 469.821 414.974 470.06 414.924H470.099C470.452 414.851 470.804 414.772 471.149 414.685C471.201 414.675 471.252 414.662 471.302 414.645C471.462 416.703 472.073 418.755 472.126 420.832C472.193 423.853 471.083 426.747 470.379 429.675C469.785 432.346 469.388 435.057 469.189 437.787C469.098 438.327 469.132 438.881 469.289 439.406C469.364 439.661 469.526 439.882 469.747 440.031C469.968 440.18 470.233 440.248 470.498 440.223C470.685 440.16 470.858 440.06 471.005 439.929C471.152 439.798 471.272 439.638 471.355 439.46C472.146 438.147 472.41 436.584 472.093 435.085C472.725 435.218 473.05 435.941 473.203 436.598C473.607 438.302 473.51 440.086 472.924 441.737C472.532 442.839 471.927 443.854 471.595 444.989C471.475 445.342 471.475 445.725 471.595 446.078C471.927 446.841 472.977 446.788 473.735 446.51C476.211 445.501 478.222 443.608 479.377 441.199C480.554 438.802 481.122 436.153 481.032 433.485Z" fill="url(#paint0_linear)"/>
<path d="M442.259 564.599C441.548 565.456 440.332 565.628 439.229 565.741C437.804 565.946 436.36 565.973 434.929 565.821C433.241 565.481 431.613 564.895 430.097 564.082L427.279 562.754C425.996 562.136 421.61 558.432 420.826 557.231C420.042 556.029 420.121 554.137 421.358 553.427C421.711 553.261 422.075 553.119 422.447 553.002C424.521 552.179 428.721 552.597 430.928 552.279C432.022 552.227 433.108 552.483 434.065 553.015C436.245 553.978 440.086 554.741 441.036 557.191C441.774 559.076 443.794 562.734 442.259 564.599Z" fill="#2F2E41"/>
<path d="M457.911 562.781C458.622 563.637 459.838 563.809 460.941 563.922C464.085 564.509 467.334 563.916 470.066 562.256L472.884 560.928C474.173 560.311 478.56 556.607 479.344 555.405C480.128 554.204 480.049 552.305 478.806 551.601C478.457 551.431 478.094 551.289 477.722 551.177C475.649 550.353 471.449 550.772 469.242 550.453C468.146 550.399 467.057 550.655 466.099 551.19C463.925 552.152 460.117 552.916 459.134 555.365C458.376 557.257 456.349 560.915 457.911 562.781Z" fill="#2F2E41"/>
<path d="M464.763 428.553C465.442 429.858 466.035 431.206 466.537 432.589C472.572 448.521 473.077 465.953 473.329 482.994C473.307 485.765 473.464 488.535 473.801 491.285C474.054 493.031 474.466 494.79 474.193 496.536C473.974 498.043 473.263 499.53 473.529 501.024C473.655 501.688 473.974 502.351 474.1 503.015C474.2 503.751 474.18 504.497 474.041 505.226L473.236 511.24C472.771 514.666 471.708 517.958 471.768 521.417C471.807 523.773 471.847 526.13 472.107 528.473C472.492 530.835 472.756 533.215 472.897 535.603C472.897 537.395 472.671 539.181 472.512 540.967C472.288 543.487 472.237 546.02 472.359 548.548C472.452 550.493 472.678 552.531 473.688 554.171C472.525 555.83 471.382 557.317 469.528 558.154C465.76 559.8 461.433 559.242 457.359 558.651C457.585 557.901 457.931 557.052 457.605 556.335C457.416 555.988 457.182 555.669 456.907 555.385C456.02 554.121 455.403 552.689 455.093 551.177C454.601 549.378 454.109 547.446 455.093 545.727C455.439 545.123 455.594 544.429 455.538 543.735C454.694 532.45 452.175 520.74 454.495 509.647C454.74 508.465 455.033 507.284 455.159 506.082C455.284 504.355 455.307 502.621 455.226 500.891L455.252 498.415C455.133 495.846 455.252 493.21 454.721 490.668C454.355 488.849 453.664 487.017 454.515 485.158C454.698 484.735 454.781 484.276 454.76 483.816C454.738 483.356 454.611 482.906 454.388 482.503C452.598 479.371 451.158 476.052 450.095 472.605C449.875 471.643 449.573 470.701 449.191 469.79C448.673 468.829 448.078 467.912 447.41 467.049C445.416 464.121 444.18 460.729 442.997 457.383C443.123 457.071 442.997 456.646 442.698 456.719C442.536 456.759 442.384 456.831 442.251 456.93C442.117 457.029 442.005 457.154 441.92 457.297C440.299 459.474 440.159 462.382 440.086 465.104C439.964 467.626 440.008 470.154 440.219 472.671C440.352 473.999 440.584 475.327 440.704 476.654C440.86 479.119 440.82 481.591 440.584 484.049L439.767 496.091C439.65 497.092 439.709 498.105 439.94 499.085C440.473 500.779 440.733 502.547 440.711 504.323C440.502 511.626 441.144 518.929 442.625 526.084C443.024 528.075 443.495 530.027 443.841 532.012C444.531 536.72 444.873 541.473 444.864 546.231C444.938 549.159 444.984 552.206 443.828 554.861C443.374 555.694 443.043 556.589 442.844 557.516C442.843 557.991 442.781 558.465 442.658 558.924C442.319 559.793 441.329 560.165 440.392 560.364C438.675 560.736 436.914 560.861 435.161 560.736C434.751 560.732 434.345 560.641 433.972 560.47C433.307 560.132 432.975 559.415 432.476 558.877C431.406 557.709 429.625 557.35 428.648 556.102C427.425 554.536 427.937 552.272 428.648 550.426C429.359 548.581 430.27 546.583 429.645 544.698C428.907 542.487 426.322 541.292 425.591 539.062C427.585 530.073 422.68 520.78 423.099 511.585C423.198 509.441 423.571 507.317 423.577 505.173C423.577 499.65 421.205 494.273 421.583 488.763C422.587 474.762 417.809 460.782 415.788 446.888C415.402 444.816 415.259 442.706 415.363 440.601C415.662 437.123 417.277 433.89 419.218 430.989C420.613 428.911 422.288 426.873 424.594 425.904C426.495 425.101 428.622 425.108 430.682 425.121C435.826 425.161 440.97 425.2 446.114 425.293C449.615 425.243 453.112 425.554 456.548 426.223C459.333 426.853 461.938 428.148 464.763 428.553Z" fill="#2F2E41"/>
<g opacity="0.1">
<path opacity="0.1" d="M443.542 457.257C443.714 456.969 443.994 456.762 444.32 456.679C444.652 456.633 444.752 457.058 444.625 457.343C445.808 460.662 447.018 464.081 449.032 467.009C449.704 467.871 450.302 468.788 450.819 469.75C451.198 470.662 451.5 471.603 451.723 472.565C452.787 476.01 454.224 479.329 456.01 482.463C456.234 482.866 456.362 483.315 456.383 483.776C456.405 484.236 456.321 484.696 456.136 485.118C455.285 486.977 455.977 488.809 456.349 490.628C456.861 493.171 456.761 495.806 456.88 498.375C456.88 499.178 456.88 499.981 456.927 500.785C457.013 502.515 456.993 504.248 456.867 505.976C456.728 507.177 456.435 508.359 456.203 509.541C453.89 520.633 456.402 532.324 457.246 543.629C457.304 544.322 457.151 545.016 456.807 545.62C455.797 547.34 456.289 549.271 456.807 551.07C457.112 552.584 457.73 554.017 458.622 555.279C458.88 555.568 459.104 555.887 459.286 556.228C459.612 556.945 459.286 557.795 459.034 558.545C460.834 558.834 462.649 559.027 464.47 559.123C462.107 559.142 459.747 558.949 457.419 558.545C457.645 557.795 457.99 556.945 457.665 556.228C457.476 555.882 457.241 555.563 456.967 555.279C456.08 554.015 455.463 552.582 455.152 551.07C454.661 549.271 454.169 547.34 455.152 545.62C455.498 545.016 455.654 544.322 455.598 543.629C454.754 532.343 452.235 520.633 454.554 509.541C454.8 508.359 455.093 507.177 455.219 505.976C455.344 504.248 455.366 502.515 455.285 500.785C455.285 499.981 455.252 499.178 455.232 498.375C455.113 495.806 455.232 493.171 454.701 490.628C454.335 488.809 453.644 486.977 454.495 485.118C454.678 484.695 454.761 484.236 454.74 483.776C454.718 483.316 454.591 482.866 454.368 482.463C452.578 479.331 451.138 476.012 450.075 472.565C449.852 471.603 449.55 470.662 449.171 469.75C448.653 468.789 448.058 467.872 447.39 467.009C445.463 464.214 444.273 461.001 443.143 457.801C443.289 457.635 443.409 457.443 443.542 457.257Z" fill="black"/>
</g>
<path d="M381.654 364.725C381.156 362.289 382.099 359.68 381.362 357.31C381.096 356.453 380.445 355.564 379.547 355.584C378.65 355.604 378.085 356.46 377.314 356.865C376.072 357.529 374.556 356.925 373.327 356.274C372.097 355.624 370.668 354.88 369.339 355.272C369.18 356.122 369.751 356.925 370.376 357.516C371.061 358.039 371.629 358.699 372.044 359.454C372.356 360.237 372.21 361.114 372.277 361.957C372.416 363.882 373.606 365.548 374.862 367.048C376.831 369.466 378.923 371.782 381.129 373.985C381.129 373.985 384.452 369.843 384.406 369.119C384.359 368.396 383.223 367.792 382.811 367.247C382.244 366.502 381.849 365.641 381.654 364.725Z" fill="#A1616A"/>
<path d="M481.384 415.707C481.682 416.481 481.905 417.281 482.049 418.097C482.913 422.279 483.458 426.521 483.996 430.757C484.136 431.885 484.282 433.02 484.322 434.156C484.477 436.86 483.92 439.559 482.707 441.982C481.482 444.421 479.389 446.315 476.838 447.293C476.054 447.572 474.958 447.625 474.612 446.868C474.489 446.518 474.489 446.136 474.612 445.786C474.924 444.657 475.556 443.642 475.941 442.546C476.548 440.91 476.65 439.13 476.234 437.435C476.074 436.771 475.735 436.061 475.077 435.928C475.405 437.424 475.128 438.989 474.306 440.283C474.216 440.462 474.09 440.621 473.937 440.751C473.785 440.881 473.607 440.979 473.416 441.039C473.145 441.067 472.872 441.002 472.642 440.855C472.413 440.708 472.24 440.488 472.153 440.23C471.993 439.707 471.959 439.155 472.053 438.616C472.262 435.899 472.675 433.2 473.29 430.544C474.021 427.63 475.184 424.756 475.104 421.748C475.037 419.027 473.954 416.351 474.26 413.65C474.255 413.5 474.301 413.353 474.39 413.232C474.479 413.111 474.607 413.025 474.752 412.986C475.515 412.673 476.299 412.414 477.098 412.209C477.57 412.09 479.178 411.545 479.63 411.784C480.082 412.023 480.108 413.198 480.294 413.61C480.647 414.294 481.079 414.971 481.384 415.707Z" fill="#A1616A"/>
<path d="M427.598 335.051C433.746 335.051 438.73 330.073 438.73 323.932C438.73 317.791 433.746 312.813 427.598 312.813C421.45 312.813 416.466 317.791 416.466 323.932C416.466 330.073 421.45 335.051 427.598 335.051Z" fill="#A1616A"/>
<path d="M437.574 331.978C437.569 332.687 437.625 333.396 437.74 334.095C437.895 334.803 438.117 335.495 438.405 336.16C438.775 337.247 439.298 338.275 439.96 339.214C440.631 340.161 441.639 340.817 442.778 341.046C435.167 344.611 427.041 346.956 418.699 347.996C420.013 347.124 421.105 345.958 421.889 344.591C422.309 343.716 422.593 342.782 422.733 341.822C423.447 337.802 423.087 333.664 421.69 329.827C421.55 329.455 421.417 328.991 421.69 328.679C421.804 328.568 421.939 328.482 422.089 328.426C425.392 327.025 428.962 326.359 432.549 326.475C433.467 326.475 434.384 326.521 435.301 326.587C435.793 326.627 436.876 326.521 437.295 326.88C437.713 327.238 437.527 328.645 437.541 329.223L437.574 331.978Z" fill="#A1616A"/>
<path d="M443.462 340.09C441.824 337.996 439.531 336.509 436.949 335.866C434.367 335.224 431.644 335.463 429.213 336.545C423.896 339.074 421.304 345.175 416.645 348.707C415.585 349.5 414.455 350.195 413.269 350.784C412.57 351.169 411.824 351.464 411.05 351.661C410.179 351.853 409.275 351.827 408.391 352.032C406.739 352.517 405.331 353.608 404.45 355.086C404.016 355.86 403.532 356.605 403.001 357.317C402.516 357.894 401.911 358.365 401.4 358.916C399.545 360.908 399.04 363.762 398.621 366.444C397.17 367.968 395.587 369.361 393.89 370.607C393.357 371.016 392.766 371.343 392.135 371.576C390.507 372.107 388.706 371.436 387.317 370.434C385.928 369.432 384.798 368.111 383.429 367.115C382.173 368.907 380.857 370.713 379.514 372.425C379.314 372.759 379.004 373.012 378.637 373.142C378.384 373.992 378.989 374.868 379.441 375.625L381.867 379.701C382.673 381.183 383.657 382.561 384.798 383.804C385.975 385.027 387.563 385.772 389.257 385.895C390.329 385.885 391.389 385.68 392.388 385.291C397.04 383.737 401.26 381.261 405.68 379.15C406.477 378.697 407.369 378.436 408.285 378.387C408.743 378.376 409.191 378.515 409.563 378.782C409.935 379.049 410.209 379.43 410.345 379.867C410.85 382.416 411.349 384.952 412.04 387.448C412.7 389.811 413.309 392.181 413.867 394.558C414.242 396.017 414.509 397.501 414.665 398.999C414.738 399.849 414.745 400.698 414.758 401.555L414.851 411.857C414.851 412.973 414.226 413.663 413.735 414.659C412.993 416.207 412.881 417.982 413.422 419.611C413.695 420.414 414.127 421.158 414.432 421.954C415.163 423.873 415.137 425.984 415.097 428.035L415.011 432.735C414.986 432.931 415.02 433.13 415.11 433.306C415.396 433.751 416.087 433.492 416.526 433.186L418.699 431.699C421.645 432.106 424.62 432.25 427.591 432.131C436.039 432.011 444.492 432.343 452.919 432.934C455.737 433.133 458.642 433.346 461.3 432.41C462.629 431.932 463.892 431.168 465.288 430.79C465.858 430.697 466.398 430.469 466.863 430.126C467.634 429.416 467.428 428.135 467.115 427.165C466.836 426.289 466.524 425.42 466.172 424.57C465.813 423.787 465.52 422.977 465.294 422.147C464.876 420.275 465.294 418.104 464.118 416.577C461.499 413.158 463.354 407.894 462.25 403.732C461.898 402.404 461.373 401.077 461.041 399.749C460.828 398.899 460.695 398.036 460.569 397.173C460.22 395.304 460.049 393.406 460.057 391.504C460.057 390.555 460.21 389.606 460.33 388.663L461.161 382.104C462.196 384.045 462.919 386.138 463.301 388.304C464.055 391.542 464.987 394.735 466.092 397.87C466.717 399.762 467.341 401.648 468.019 403.526C468.453 404.599 468.784 405.71 469.009 406.845C469.156 407.755 469.162 408.684 469.269 409.594C469.491 411.555 470.175 413.436 471.262 415.084C471.466 415.467 471.801 415.763 472.206 415.92C472.475 415.979 472.754 415.979 473.024 415.92C475.963 415.34 478.808 414.357 481.477 412.999C482.045 412.761 482.538 412.376 482.906 411.884C483.624 410.716 482.82 409.262 482.468 407.934C482.115 406.606 482.182 404.807 481.065 403.858C477.164 400.539 479.072 393.814 477.151 389.088C476.805 388.258 476.406 387.455 476.114 386.605C475.888 385.941 475.722 385.277 475.556 384.614C474.196 379.113 472.738 373.631 471.183 368.17C469.574 362.514 469.747 356.626 467.72 351.103C467.339 349.95 466.843 348.837 466.238 347.784C465.56 346.682 464.653 345.738 463.58 345.016C460.635 343.071 457.671 341.418 454.209 340.714C450.746 340.01 446.985 340.05 443.462 340.09Z" fill="#3F3D56"/>
<path d="M417.483 326.654C415.988 325.851 416.38 323.66 416.154 322.007C415.629 318.549 411.727 316.504 410.837 313.132C411.89 313.263 412.959 313.111 413.934 312.693C414.121 311.574 413.899 310.424 413.309 309.454C416.519 308.126 419.124 305.597 422.381 304.422C426.488 302.942 431.021 303.851 435.195 305.225C437.261 305.889 439.408 306.799 440.658 308.578C442.027 310.536 441.987 313.105 441.934 315.495C441.821 319.239 441.668 323.116 440 326.468C437.88 330.737 431.865 334.686 426.894 333.531C424.833 333.053 424.235 331.752 423.351 329.96C422.806 328.845 422.607 327.55 421.358 326.966C420.108 326.382 418.699 327.305 417.483 326.654Z" fill="#3F3D56"/>
<g opacity="0.1">
<path opacity="0.1" d="M415.064 428.825C415.061 428.845 415.061 428.865 415.064 428.885C415.35 429.329 416.041 429.071 416.479 428.765L418.686 427.245C421.632 427.649 424.607 427.791 427.578 427.67C436.025 427.55 444.479 427.882 452.906 428.473C455.724 428.672 458.628 428.885 461.287 427.949C462.616 427.471 463.879 426.714 465.274 426.329C465.756 426.24 466.221 426.074 466.65 425.838C466.81 426.276 466.963 426.714 467.102 427.165C467.414 428.168 467.621 429.416 466.85 430.126C466.385 430.469 465.845 430.697 465.274 430.79C463.892 431.168 462.616 431.932 461.287 432.41C458.628 433.346 455.724 433.133 452.906 432.934C444.479 432.343 436.025 432.011 427.578 432.131C424.612 432.249 421.64 432.105 418.699 431.699L416.493 433.226C416.054 433.531 415.363 433.79 415.077 433.346C414.987 433.17 414.952 432.971 414.977 432.775C415.008 431.46 415.037 430.144 415.064 428.825Z" fill="black"/>
<path opacity="0.1" d="M463.301 388.291C462.919 386.125 462.196 384.032 461.161 382.091L460.33 388.649C460.277 389.061 460.223 389.473 460.177 389.884C460.071 388.941 460.031 387.992 460.057 387.043C460.057 386.094 460.21 385.144 460.33 384.202L461.161 377.643C462.196 379.584 462.919 381.677 463.301 383.843C464.055 387.08 464.987 390.274 466.092 393.409C466.717 395.301 467.341 397.193 468.019 399.065C468.452 400.138 468.784 401.249 469.009 402.384C469.156 403.294 469.162 404.223 469.269 405.133C469.488 407.095 470.171 408.976 471.262 410.622C471.462 411.006 471.795 411.304 472.2 411.459C472.471 411.507 472.75 411.496 473.017 411.426C475.956 410.846 478.801 409.863 481.471 408.505C481.823 408.332 482.155 408.12 482.461 407.874C482.813 409.202 483.617 410.656 482.9 411.824C482.531 412.316 482.038 412.701 481.471 412.939C478.801 414.297 475.956 415.28 473.017 415.86C472.748 415.92 472.469 415.92 472.2 415.86C471.795 415.705 471.462 415.408 471.262 415.024C470.172 413.377 469.489 411.496 469.269 409.534C469.162 408.624 469.156 407.695 469.009 406.785C468.784 405.65 468.453 404.539 468.019 403.466C467.355 401.588 466.69 399.702 466.092 397.81C464.989 394.69 464.057 391.512 463.301 388.291Z" fill="black"/>
<path opacity="0.1" d="M462.616 406.367C462.616 406.659 462.616 406.958 462.616 407.257C462.629 406.958 462.623 406.666 462.616 406.367Z" fill="black"/>
<path opacity="0.1" d="M414.412 417.533C415.143 419.451 415.117 421.563 415.077 423.614C415.077 424.151 415.077 424.683 415.077 425.22C415.021 424.113 414.797 423.021 414.412 421.981C414.107 421.184 413.675 420.441 413.402 419.637C412.937 418.231 412.956 416.71 413.455 415.316C413.728 416.073 414.12 416.783 414.412 417.533Z" fill="black"/>
<path opacity="0.1" d="M379.527 372.386L379.906 371.894L381.9 375.213C382.704 376.696 383.689 378.074 384.831 379.316C385.994 380.561 387.579 381.329 389.277 381.473C390.348 381.463 391.408 381.26 392.407 380.876C397.06 379.316 401.28 376.84 405.7 374.729C406.483 374.275 407.361 374.007 408.265 373.946C408.723 373.937 409.172 374.077 409.544 374.345C409.915 374.613 410.19 374.995 410.325 375.433C410.83 377.975 411.329 380.511 412.02 383.007C412.68 385.37 413.289 387.74 413.848 390.117C414.222 391.575 414.489 393.06 414.645 394.558C414.718 395.407 414.725 396.264 414.731 397.113L414.831 407.423C414.832 407.574 414.818 407.725 414.791 407.874L414.731 401.561C414.731 400.705 414.731 399.855 414.645 399.005C414.489 397.507 414.222 396.023 413.848 394.564C413.28 392.188 412.671 389.818 412.02 387.455C411.355 384.959 410.83 382.423 410.325 379.874C410.189 379.437 409.915 379.056 409.543 378.789C409.171 378.522 408.723 378.383 408.265 378.393C407.349 378.442 406.457 378.704 405.66 379.157C401.26 381.268 397.02 383.744 392.368 385.297C391.37 385.687 390.309 385.892 389.237 385.901C387.539 385.757 385.954 384.988 384.791 383.744C383.65 382.501 382.666 381.123 381.86 379.641C381.056 378.28 380.245 376.926 379.434 375.565C378.982 374.809 378.378 373.932 378.63 373.083C379.001 372.961 379.318 372.715 379.527 372.386Z" fill="black"/>
</g>
<g opacity="0.1">
<path opacity="0.1" d="M413.881 311.06C413.781 310.485 413.574 309.933 413.269 309.434C413.455 309.359 413.642 309.279 413.828 309.195C413.971 309.807 413.99 310.441 413.881 311.06Z" fill="black"/>
<path opacity="0.1" d="M416.127 320.367C416.38 322.047 415.988 324.231 417.456 325.014C418.666 325.678 420.115 324.742 421.304 325.313C422.494 325.884 422.727 327.192 423.298 328.307C424.169 330.099 424.78 331.394 426.841 331.878C431.812 333.033 437.826 329.077 439.946 324.808C441.615 321.456 441.767 317.579 441.88 313.835C441.88 313.649 441.88 313.47 441.88 313.284C441.88 314.008 441.88 314.738 441.88 315.455C441.767 319.199 441.615 323.076 439.946 326.428C437.826 330.697 431.812 334.646 426.841 333.491C424.78 333.013 424.182 331.712 423.298 329.92C422.753 328.805 422.554 327.51 421.304 326.926C420.055 326.342 418.646 327.284 417.456 326.634C415.961 325.831 416.353 323.64 416.127 321.987C415.602 318.528 411.701 316.484 410.81 313.112C411.05 313.144 411.292 313.159 411.535 313.158C412.964 315.621 415.695 317.519 416.127 320.367Z" fill="black"/>
</g>
<path d="M156.474 511.977C154.645 510.992 152.674 510.295 150.632 509.913C152.114 509.706 153.577 509.378 155.005 508.93C158.8 507.729 160.714 506.122 159.278 505.332C157.843 504.542 153.596 504.874 149.801 506.076C148.52 506.447 147.295 506.99 146.159 507.689C145.767 506.859 144.704 505.896 143.036 504.98C139.666 503.128 135.133 502.199 132.914 502.896C130.694 503.593 131.631 505.664 135.007 507.543C136.655 508.428 138.418 509.082 140.244 509.488C139.031 509.637 137.828 509.858 136.642 510.152C132.515 511.141 130.122 512.641 131.325 513.471C132.528 514.301 136.822 514.221 140.955 513.232C142.459 512.905 143.914 512.389 145.289 511.698C145.628 512.555 146.711 513.577 148.465 514.539C151.835 516.385 156.367 517.321 158.587 516.624C160.807 515.927 159.843 513.823 156.474 511.977Z" fill="#6C63FF"/>
<path d="M106.961 448.169C105.813 447.552 104.575 447.117 103.292 446.881C104.226 446.754 105.146 446.548 106.044 446.264C108.417 445.514 109.619 444.505 108.702 444.013C107.785 443.522 105.153 443.728 102.774 444.478C101.974 444.71 101.209 445.049 100.501 445.487C100.015 444.741 99.3224 444.153 98.5073 443.794C96.4005 442.633 93.5627 442.048 92.1736 442.467C90.7846 442.885 91.3761 444.199 93.5028 445.361C94.5495 445.916 95.6676 446.325 96.8259 446.576C96.0636 446.666 95.307 446.799 94.5596 446.974C91.9743 447.591 90.4789 448.534 91.2365 449.065C91.9942 449.596 94.6725 449.536 97.2578 448.919C98.1983 448.716 99.1094 448.394 99.9694 447.963C100.43 448.749 101.128 449.369 101.963 449.736C104.077 450.897 106.915 451.482 108.304 451.063C109.693 450.645 109.074 449.331 106.961 448.169Z" fill="#6C63FF"/>
<path d="M512.72 545.945C524.572 545.945 534.18 544.1 534.18 541.823C534.18 539.546 524.572 537.701 512.72 537.701C500.868 537.701 491.26 539.546 491.26 541.823C491.26 544.1 500.868 545.945 512.72 545.945Z" fill="#6C63FF"/>
<path d="M512.361 543.337C513.742 543.337 514.86 541.874 514.86 540.071C514.86 538.267 513.742 536.805 512.361 536.805C510.981 536.805 509.863 538.267 509.863 540.071C509.863 541.874 510.981 543.337 512.361 543.337Z" fill="#3F3D56"/>
<path d="M512.361 539.347C513.742 539.347 514.86 537.885 514.86 536.081C514.86 534.277 513.742 532.815 512.361 532.815C510.981 532.815 509.863 534.277 509.863 536.081C509.863 537.885 510.981 539.347 512.361 539.347Z" fill="#3F3D56"/>
<path d="M512.361 535.351C513.742 535.351 514.86 533.888 514.86 532.085C514.86 530.281 513.742 528.818 512.361 528.818C510.981 528.818 509.863 530.281 509.863 532.085C509.863 533.888 510.981 535.351 512.361 535.351Z" fill="#3F3D56"/>
<path d="M512.361 531.361C513.742 531.361 514.86 529.899 514.86 528.095C514.86 526.291 513.742 524.829 512.361 524.829C510.981 524.829 509.863 526.291 509.863 528.095C509.863 529.899 510.981 531.361 512.361 531.361Z" fill="#3F3D56"/>
<path d="M512.361 527.365C513.742 527.365 514.86 525.902 514.86 524.099C514.86 522.295 513.742 520.833 512.361 520.833C510.981 520.833 509.863 522.295 509.863 524.099C509.863 525.902 510.981 527.365 512.361 527.365Z" fill="#3F3D56"/>
<path d="M512.361 523.375C513.742 523.375 514.86 521.913 514.86 520.109C514.86 518.305 513.742 516.843 512.361 516.843C510.981 516.843 509.863 518.305 509.863 520.109C509.863 521.913 510.981 523.375 512.361 523.375Z" fill="#3F3D56"/>
<path d="M512.361 519.379C513.742 519.379 514.86 517.916 514.86 516.113C514.86 514.309 513.742 512.847 512.361 512.847C510.981 512.847 509.863 514.309 509.863 516.113C509.863 517.916 510.981 519.379 512.361 519.379Z" fill="#3F3D56"/>
<path d="M521.712 488.789C522.053 488.355 522.364 487.898 522.643 487.422L516.077 486.346L523.174 486.399C523.856 484.919 524.227 483.316 524.267 481.687C524.307 480.058 524.015 478.438 523.407 476.926L513.877 481.865L522.663 475.413C521.838 473.997 520.73 472.765 519.409 471.795C518.087 470.825 516.58 470.136 514.981 469.772C513.382 469.408 511.725 469.376 510.113 469.679C508.501 469.981 506.969 470.612 505.611 471.531C504.253 472.45 503.099 473.638 502.221 475.022C501.342 476.405 500.758 477.954 500.504 479.573C500.25 481.191 500.332 482.845 500.745 484.43C501.158 486.016 501.893 487.499 502.904 488.789C502.372 489.467 501.913 490.199 501.535 490.973L510.062 495.394L500.97 492.347C500.553 493.584 500.34 494.88 500.339 496.184C500.334 498.866 501.238 501.47 502.904 503.573C501.518 505.336 500.656 507.453 500.417 509.682C500.178 511.911 500.571 514.162 501.553 516.178C502.534 518.194 504.063 519.894 505.966 521.083C507.868 522.273 510.067 522.903 512.312 522.903C514.556 522.903 516.755 522.273 518.658 521.083C520.56 519.894 522.089 518.194 523.071 516.178C524.052 514.162 524.445 511.911 524.206 509.682C523.967 507.453 523.105 505.336 521.719 503.573C523.379 501.465 524.281 498.861 524.279 496.18C524.278 493.498 523.374 490.895 521.712 488.789Z" fill="#6C63FF"/>
<path opacity="0.1" d="M500.339 496.178C500.334 498.859 501.238 501.464 502.904 503.566C501.518 505.329 500.656 507.446 500.417 509.675C500.178 511.904 500.571 514.155 501.553 516.172C502.534 518.188 504.063 519.888 505.966 521.077C507.868 522.266 510.067 522.897 512.312 522.897C514.556 522.897 516.755 522.266 518.658 521.077C520.56 519.888 522.089 518.188 523.071 516.172C524.052 514.155 524.445 511.904 524.206 509.675C523.967 507.446 523.105 505.329 521.719 503.566C523.321 501.535 500.339 494.837 500.339 496.178Z" fill="black"/>
<defs>
<linearGradient id="paint0_linear" x1="425.784" y1="565.927" x2="425.784" y2="302.298" gradientUnits="userSpaceOnUse">
<stop stop-color="#808080" stop-opacity="0.25"/>
<stop offset="0.54" stop-color="#808080" stop-opacity="0.12"/>
<stop offset="1" stop-color="#808080" stop-opacity="0.1"/>
</linearGradient>
</defs>
</svg>
