<svg width="559" height="361" viewBox="0 0 559 361" fill="none" xmlns="http://www.w3.org/2000/svg">
<g clip-path="url(#clip0)">
<path opacity="0.1" d="M316.187 49.1485C280.356 49.1934 245.867 39.6918 212.878 29.1366C179.889 18.5813 147.155 6.76155 111.99 1.75296C89.3742 -1.46653 63.6572 -1.17059 45.9789 10.5191C28.9621 21.7649 24.0344 40.3779 21.6568 57.5739C19.8689 70.5102 19.0444 84.0876 25.7409 95.9208C30.3905 104.135 38.3477 110.906 43.9561 118.735C63.5326 145.971 51.7598 180.762 32.7346 208.63C23.8139 221.705 13.3641 234.238 6.61974 248.062C-0.124674 261.886 -2.89051 277.562 3.98812 291.207C10.8044 304.73 26.2011 314.546 42.7241 321.249C76.2784 334.89 115.345 337.813 153.362 338.939C237.516 341.436 321.833 336.342 405.925 331.249C437.044 329.365 468.303 327.469 498.78 322.012C515.7 318.985 533.125 314.492 545.123 304.645C560.352 292.144 563.467 271.733 552.385 257.061C533.801 232.453 484.797 227.812 471.471 201.187C464.123 186.528 470.46 169.718 479.793 155.589C499.81 125.273 534.266 98.118 534.846 64.2102C535.243 40.9249 517.325 18.2091 490.564 8.08881C462.512 -2.5113 424.265 0.214959 404.612 19.9713C384.403 40.3241 347.824 49.1171 316.187 49.1485Z" fill="#6C63FF"/>
<path d="M475.766 289.377C475.766 289.377 469.875 285.741 464.037 288.328C464.037 288.328 465.834 291.566 473.226 291.261L475.766 289.377Z" fill="#6C63FF"/>
<path d="M476.514 289.57C476.514 289.57 478.307 295.955 473.81 300.3C473.81 300.3 471.107 297.668 473.81 291.22L476.514 289.57Z" fill="#6C63FF"/>
<path d="M483.838 283.441C483.838 283.441 483.402 278.011 470.292 279.813C470.292 279.813 470.23 283.315 474.831 284.974C479.433 286.633 481.542 285.234 483.838 283.441Z" fill="#6C63FF"/>
<path d="M484.663 283.405C484.663 283.405 490.204 285.068 485.262 296.57C485.262 296.57 481.605 295.807 480.948 291.229C480.291 286.651 482.237 285.073 484.663 283.405Z" fill="#6C63FF"/>
<path d="M492.064 275.702C492.064 275.702 492.817 266.765 479.419 267.68C479.419 267.68 478.46 275.751 489.701 277.849L492.064 275.702Z" fill="#6C63FF"/>
<path d="M500.918 265.613C500.918 265.613 499.082 255.483 485.689 258.501C485.689 258.501 485.641 267.258 498.732 268.025L500.918 265.613Z" fill="#6C63FF"/>
<path d="M507.389 255.183C507.389 255.183 504.311 245.318 491.043 248.269C491.043 248.269 494.202 257.142 506.507 257.003L507.389 255.183Z" fill="#6C63FF"/>
<path d="M513.534 244.995C513.534 244.995 510.528 234.758 497.715 237.821C497.715 237.821 501.991 247.547 512.685 246.726L513.534 244.995Z" fill="#6C63FF"/>
<path d="M517.493 235.319C517.493 235.319 515.183 222.799 503.238 225.571C503.238 225.571 506.708 236.96 516.616 237.144L517.493 235.319Z" fill="#6C63FF"/>
<path d="M521.208 223.629C521.208 223.629 518.433 211.011 506.348 214.661C506.348 214.661 511.084 226.589 520.35 225.355L521.208 223.629Z" fill="#6C63FF"/>
<path d="M523.49 212.751C523.49 212.751 519.085 200.129 509.742 200.469C509.742 200.469 514.243 213.8 522.708 215.266L523.49 212.751Z" fill="#6C63FF"/>
<path d="M524.966 202.133C524.966 202.133 520.173 186.941 512.57 188.112C512.57 188.112 515.887 199.725 524.698 204.501L524.966 202.133Z" fill="#6C63FF"/>
<path d="M525.8 189.466C525.8 189.466 521.304 176.807 513.817 176.301C513.817 176.301 516.875 188.757 525.652 192.757L525.8 189.466Z" fill="#6C63FF"/>
<path d="M526.706 177.646C526.706 177.646 521.103 164.974 516.161 164.687C516.161 164.687 518.596 177.166 526.227 179.727L526.706 177.646Z" fill="#6C63FF"/>
<path d="M527.325 166.651C527.325 166.651 523.878 152.89 518.927 151.747C518.927 151.747 519.602 163.006 526.826 167.683L527.325 166.651Z" fill="#6C63FF"/>
<path d="M529.194 152.249C529.194 152.249 525.57 141.277 521.558 139.604C521.558 139.604 522.349 152.54 528.269 154.93L529.194 152.249Z" fill="#6C63FF"/>
<path d="M530.742 142.832L531.471 123.489C531.471 123.489 523.969 138.07 530.201 146.227L530.742 142.832Z" fill="#6C63FF"/>
<path d="M536.533 123.592C536.533 123.592 541.935 109.467 543.244 108.678C543.244 108.678 532.65 117.843 533.686 129.632L536.533 123.592Z" fill="#6C63FF"/>
<path d="M492.428 275.634C492.428 275.634 501.929 274.473 501.646 287.032C501.646 287.032 493.061 288.342 490.257 277.952L492.428 275.634Z" fill="#6C63FF"/>
<path d="M501.368 265.272C501.368 265.272 512.345 265.24 511.434 278.096C511.434 278.096 502.217 279.638 499.177 267.702L501.368 265.272Z" fill="#6C63FF"/>
<path d="M507.494 256.012C507.494 256.012 517.46 251.64 523.835 262.927C523.835 262.927 514.632 266.568 506.612 257.837L507.494 256.012Z" fill="#6C63FF"/>
<path d="M513.754 245.089C513.754 245.089 523.96 240.439 529.952 251.461C529.952 251.461 519.32 254.887 512.911 246.834L513.754 245.089Z" fill="#6C63FF"/>
<path d="M517.364 235.592C517.364 235.592 527.186 226.817 535.023 235.691C535.023 235.691 524.99 242.914 516.913 237.547L517.364 235.592Z" fill="#6C63FF"/>
<path d="M520.652 223.329C520.652 223.329 530.532 214.361 538.307 223.741C538.307 223.741 527.219 231.108 520.298 225.212L520.652 223.329Z" fill="#6C63FF"/>
<path d="M522.498 212.392C522.498 212.392 530.11 201.182 539.074 203.684C539.074 203.684 531.174 215.553 522.584 215.024L522.498 212.392Z" fill="#6C63FF"/>
<path d="M524.741 202.061C524.741 202.061 532.411 187.946 539.668 190.403C539.668 190.403 534.136 201.254 524.544 204.442L524.741 202.061Z" fill="#6C63FF"/>
<path d="M525.273 188.73C525.273 188.73 533.158 177.619 540.545 178.978C540.545 178.978 534.098 190.246 524.506 191.945L525.273 188.73Z" fill="#6C63FF"/>
<path d="M525.887 177.399C525.887 177.399 531.998 164.929 536.964 164.844C536.964 164.844 534.031 177.224 526.299 179.516L525.887 177.399Z" fill="#6C63FF"/>
<path d="M527.085 166.382C527.085 166.382 533.877 153.755 538.982 153.729C538.982 153.729 535.507 164.526 527.31 167.49L527.085 166.382Z" fill="#6C63FF"/>
<path d="M528.106 153.038C528.106 153.038 533.187 142.59 537.396 141.406C537.396 141.406 534.855 154.141 528.667 155.809L528.106 153.038Z" fill="#6C63FF"/>
<path d="M531.347 142.451L542.702 126.269C542.702 126.269 539.793 142.232 529.688 145.55L531.347 142.451Z" fill="#6C63FF"/>
<path d="M539.141 124.896C539.141 124.896 552.337 116.377 552.816 115C552.816 115 546.106 126.932 533.643 129.04L539.141 124.896Z" fill="#6C63FF"/>
<path d="M539.932 121.063C539.932 121.063 555.084 107.436 558.952 107.449C558.952 107.449 546.456 107.983 539.567 120.336L539.932 121.063Z" fill="#6C63FF"/>
<path d="M528.255 155.06L528.806 155.127C531.653 134.281 535.804 121.946 540.492 120.435L540.31 119.942C535.339 121.556 531.159 133.703 528.255 155.06Z" fill="#444053"/>
<path d="M524.065 204.913L524.899 204.976C525.077 203.03 525.211 201.039 525.302 199.052C526.098 181.798 527.33 165.952 528.95 154.074L528.47 153.513C526.845 165.418 525.264 181.74 524.468 199.021C524.377 200.994 524.243 202.976 524.065 204.913Z" fill="#444053"/>
<path d="M460.216 299.323C460.36 299.265 475.042 293.131 490.281 278.504C499.209 269.937 506.627 260.1 512.259 249.358C519.305 235.938 523.6 219.446 525.038 203.424L524.171 203.805C520.935 239.767 503.434 264.339 489.519 277.724C474.429 292.22 459.909 298.292 459.766 298.35L460.216 299.323Z" fill="#444053"/>
<path d="M498.233 38.2168H37.6384C36.5501 38.2168 35.5065 38.6212 34.737 39.341C33.9675 40.0608 33.5352 41.0371 33.5352 42.0551V53.2381H502.336V42.0551C502.336 41.0371 501.904 40.0608 501.135 39.341C500.365 38.6212 499.321 38.2168 498.233 38.2168V38.2168Z" fill="#3F3D56"/>
<g filter="url(#filter0_d)">
<path d="M33.5352 53.2383V304.897C33.5352 306.949 34.4068 308.918 35.9584 310.369C37.51 311.821 39.6144 312.636 41.8087 312.636H494.063C496.257 312.636 498.362 311.821 499.913 310.369C501.465 308.918 502.336 306.949 502.336 304.897V53.2383H33.5352Z" fill="white"/>
</g>
<path opacity="0.8" d="M40.9604 47.409C42.0193 47.409 42.8777 46.6059 42.8777 45.6154C42.8777 44.6248 42.0193 43.8218 40.9604 43.8218C39.9014 43.8218 39.043 44.6248 39.043 45.6154C39.043 46.6059 39.9014 47.409 40.9604 47.409Z" fill="#FA5959"/>
<path opacity="0.8" d="M46.2331 47.409C47.292 47.409 48.1504 46.6059 48.1504 45.6154C48.1504 44.6248 47.292 43.8218 46.2331 43.8218C45.1741 43.8218 44.3157 44.6248 44.3157 45.6154C44.3157 46.6059 45.1741 47.409 46.2331 47.409Z" fill="#FED253"/>
<path opacity="0.8" d="M51.5058 47.409C52.5647 47.409 53.4232 46.6059 53.4232 45.6154C53.4232 44.6248 52.5647 43.8218 51.5058 43.8218C50.4468 43.8218 49.5884 44.6248 49.5884 45.6154C49.5884 46.6059 50.4468 47.409 51.5058 47.409Z" fill="#8CCF4D"/>
<path opacity="0.05" d="M453.879 95.1992H77.1125V250.174H453.879V95.1992Z" fill="black"/>
<path d="M451.003 96.374H79.9885V247.932H451.003V96.374Z" fill="#3F3D56"/>
<path d="M181.131 135.38C173.831 135.38 166.695 137.405 160.625 141.199C154.555 144.993 149.824 150.385 147.031 156.694C144.237 163.003 143.506 169.945 144.93 176.643C146.355 183.34 149.87 189.492 155.032 194.321C160.194 199.149 166.77 202.438 173.93 203.77C181.09 205.102 188.511 204.418 195.256 201.805C202 199.192 207.765 194.767 211.82 189.089C215.876 183.411 218.041 176.735 218.041 169.907C218.041 165.373 217.086 160.883 215.231 156.694C213.376 152.505 210.657 148.699 207.23 145.493C203.803 142.287 199.734 139.743 195.256 138.008C190.778 136.273 185.978 135.38 181.131 135.38V135.38ZM187.751 170.736V187.085H174.703V170.736C172.897 169.458 171.567 167.681 170.899 165.657C170.231 163.633 170.259 161.464 170.98 159.455C171.701 157.447 173.078 155.702 174.916 154.465C176.755 153.228 178.962 152.563 181.227 152.563C183.491 152.563 185.699 153.228 187.537 154.465C189.376 155.702 190.753 157.447 191.474 159.455C192.195 161.464 192.223 163.633 191.555 165.657C190.887 167.681 189.556 169.458 187.751 170.736V170.736Z" fill="#6C63FF"/>
<path opacity="0.05" d="M181.131 135.38C173.831 135.38 166.695 137.405 160.625 141.199C154.555 144.993 149.824 150.385 147.031 156.694C144.237 163.003 143.506 169.945 144.93 176.643C146.355 183.34 149.87 189.492 155.032 194.321C160.194 199.149 166.77 202.438 173.93 203.77C181.09 205.102 188.511 204.418 195.256 201.805C202 199.192 207.765 194.767 211.82 189.089C215.876 183.411 218.041 176.735 218.041 169.907C218.041 165.373 217.086 160.883 215.231 156.694C213.376 152.505 210.657 148.699 207.23 145.493C203.803 142.287 199.734 139.743 195.256 138.008C190.778 136.273 185.978 135.38 181.131 135.38V135.38ZM187.751 170.736V187.085H174.703V170.736C172.897 169.458 171.567 167.681 170.899 165.657C170.231 163.633 170.259 161.464 170.98 159.455C171.701 157.447 173.078 155.702 174.916 154.465C176.755 153.228 178.962 152.563 181.227 152.563C183.491 152.563 185.699 153.228 187.537 154.465C189.376 155.702 190.753 157.447 191.474 159.455C192.195 161.464 192.223 163.633 191.555 165.657C190.887 167.681 189.556 169.458 187.751 170.736V170.736Z" fill="black"/>
<path d="M181.131 125.515C171.745 125.515 162.57 128.119 154.766 132.997C146.962 137.874 140.88 144.807 137.288 152.919C133.696 161.03 132.756 169.956 134.587 178.567C136.418 187.178 140.938 195.088 147.575 201.296C154.212 207.504 162.667 211.732 171.873 213.445C181.078 215.158 190.62 214.279 199.291 210.919C207.963 207.559 215.374 201.869 220.589 194.569C225.803 187.269 228.586 178.686 228.586 169.907C228.586 158.133 223.586 146.842 214.687 138.517C205.787 130.192 193.717 125.515 181.131 125.515V125.515ZM189.639 170.974V191.99H172.862V170.974C170.54 169.33 168.828 167.045 167.969 164.442C167.109 161.839 167.146 159.049 168.073 156.466C169 153.883 170.77 151.638 173.135 150.048C175.499 148.457 178.338 147.601 181.251 147.601C184.163 147.601 187.002 148.457 189.367 150.048C191.731 151.638 193.502 153.883 194.429 156.466C195.356 159.049 195.392 161.839 194.533 164.442C193.673 167.045 191.962 169.33 189.639 170.974V170.974Z" fill="#6C63FF"/>
<path d="M401.63 164.082H248.239V179.327H401.63V164.082Z" fill="white"/>
<path d="M401.63 191.883H368.555V207.128H401.63V191.883Z" fill="#6C63FF"/>
<path d="M263.339 171.476H260.563L263.032 169.171C263.076 169.129 263.101 169.071 263.101 169.012C263.101 168.953 263.076 168.895 263.032 168.853C263.01 168.832 262.983 168.815 262.954 168.804C262.925 168.792 262.893 168.786 262.862 168.786C262.83 168.786 262.799 168.792 262.77 168.804C262.74 168.815 262.714 168.832 262.692 168.853L260.223 171.162V168.561C260.223 168.502 260.198 168.445 260.153 168.403C260.108 168.361 260.047 168.337 259.983 168.337C259.92 168.338 259.86 168.362 259.815 168.404C259.77 168.446 259.745 168.502 259.744 168.561V171.162L257.28 168.839C257.257 168.818 257.231 168.802 257.202 168.79C257.173 168.779 257.141 168.773 257.11 168.773C257.078 168.773 257.047 168.779 257.017 168.79C256.988 168.802 256.962 168.818 256.939 168.839C256.895 168.882 256.87 168.939 256.87 168.999C256.87 169.058 256.895 169.115 256.939 169.158L259.408 171.462H256.628C256.565 171.464 256.504 171.488 256.46 171.529C256.415 171.571 256.389 171.628 256.388 171.687C256.388 171.746 256.413 171.803 256.458 171.845C256.503 171.887 256.564 171.911 256.628 171.911H259.408L256.939 174.22C256.895 174.263 256.87 174.32 256.87 174.379C256.87 174.439 256.895 174.496 256.939 174.538C256.986 174.579 257.046 174.601 257.11 174.601C257.173 174.601 257.234 174.579 257.28 174.538L259.744 172.229V174.825C259.744 174.885 259.769 174.942 259.814 174.984C259.859 175.026 259.92 175.05 259.983 175.05C260.047 175.05 260.108 175.026 260.153 174.984C260.198 174.942 260.223 174.885 260.223 174.825V172.229L262.692 174.538C262.738 174.579 262.799 174.601 262.862 174.601C262.925 174.601 262.986 174.579 263.032 174.538C263.076 174.496 263.101 174.439 263.101 174.379C263.101 174.32 263.076 174.263 263.032 174.22L260.563 171.911H263.339C263.402 171.911 263.463 171.887 263.508 171.845C263.553 171.803 263.578 171.746 263.578 171.687C263.575 171.63 263.548 171.576 263.503 171.537C263.459 171.498 263.4 171.476 263.339 171.476Z" fill="#6C63FF"/>
<path d="M273.405 171.476H270.63L273.098 169.171C273.143 169.129 273.167 169.071 273.167 169.012C273.167 168.953 273.143 168.895 273.098 168.853C273.076 168.832 273.05 168.815 273.02 168.804C272.991 168.792 272.96 168.786 272.928 168.786C272.897 168.786 272.865 168.792 272.836 168.804C272.807 168.815 272.78 168.832 272.758 168.853L270.289 171.162V168.561C270.289 168.502 270.264 168.445 270.219 168.403C270.174 168.361 270.113 168.337 270.05 168.337C269.987 168.338 269.926 168.362 269.882 168.404C269.837 168.446 269.811 168.502 269.81 168.561V171.162L267.346 168.839C267.324 168.818 267.297 168.802 267.268 168.79C267.239 168.779 267.208 168.773 267.176 168.773C267.144 168.773 267.113 168.779 267.084 168.79C267.055 168.802 267.028 168.818 267.006 168.839C266.962 168.882 266.937 168.939 266.937 168.999C266.937 169.058 266.962 169.115 267.006 169.158L269.474 171.462H266.694C266.631 171.464 266.571 171.488 266.526 171.529C266.481 171.571 266.456 171.628 266.455 171.687C266.455 171.746 266.48 171.803 266.525 171.845C266.57 171.887 266.631 171.911 266.694 171.911H269.474L267.006 174.22C266.962 174.263 266.937 174.32 266.937 174.379C266.937 174.439 266.962 174.496 267.006 174.538C267.052 174.579 267.113 174.601 267.176 174.601C267.239 174.601 267.3 174.579 267.346 174.538L269.81 172.229V174.825C269.81 174.885 269.835 174.942 269.88 174.984C269.925 175.026 269.986 175.05 270.05 175.05C270.113 175.05 270.174 175.026 270.219 174.984C270.264 174.942 270.289 174.885 270.289 174.825V172.229L272.758 174.538C272.804 174.579 272.865 174.601 272.928 174.601C272.991 174.601 273.052 174.579 273.098 174.538C273.143 174.496 273.167 174.439 273.167 174.379C273.167 174.32 273.143 174.263 273.098 174.22L270.63 171.911H273.405C273.469 171.911 273.53 171.887 273.575 171.845C273.62 171.803 273.645 171.746 273.645 171.687C273.641 171.63 273.614 171.576 273.57 171.537C273.525 171.498 273.466 171.476 273.405 171.476Z" fill="#6C63FF"/>
<path d="M283.471 171.476H280.696L283.165 169.171C283.209 169.129 283.233 169.071 283.233 169.012C283.233 168.953 283.209 168.895 283.165 168.853C283.142 168.832 283.116 168.815 283.087 168.804C283.057 168.792 283.026 168.786 282.994 168.786C282.963 168.786 282.931 168.792 282.902 168.804C282.873 168.815 282.846 168.832 282.824 168.853L280.356 171.162V168.561C280.356 168.502 280.33 168.445 280.285 168.403C280.24 168.361 280.179 168.337 280.116 168.337C280.053 168.338 279.992 168.362 279.948 168.404C279.903 168.446 279.877 168.502 279.876 168.561V171.162L277.412 168.839C277.39 168.818 277.364 168.802 277.334 168.79C277.305 168.779 277.274 168.773 277.242 168.773C277.211 168.773 277.179 168.779 277.15 168.79C277.121 168.802 277.094 168.818 277.072 168.839C277.028 168.882 277.003 168.939 277.003 168.999C277.003 169.058 277.028 169.115 277.072 169.158L279.541 171.462H276.76C276.697 171.464 276.637 171.488 276.592 171.529C276.548 171.571 276.522 171.628 276.521 171.687C276.521 171.746 276.546 171.803 276.591 171.845C276.636 171.887 276.697 171.911 276.76 171.911H279.541L277.072 174.22C277.028 174.263 277.003 174.32 277.003 174.379C277.003 174.439 277.028 174.496 277.072 174.538C277.118 174.579 277.179 174.601 277.242 174.601C277.305 174.601 277.366 174.579 277.412 174.538L279.876 172.229V174.825C279.876 174.885 279.901 174.942 279.946 174.984C279.991 175.026 280.052 175.05 280.116 175.05C280.179 175.05 280.24 175.026 280.285 174.984C280.33 174.942 280.356 174.885 280.356 174.825V172.229L282.824 174.538C282.87 174.579 282.931 174.601 282.994 174.601C283.058 174.601 283.118 174.579 283.165 174.538C283.209 174.496 283.233 174.439 283.233 174.379C283.233 174.32 283.209 174.263 283.165 174.22L280.696 171.911H283.471C283.535 171.911 283.596 171.887 283.641 171.845C283.686 171.803 283.711 171.746 283.711 171.687C283.707 171.63 283.68 171.576 283.636 171.537C283.591 171.498 283.532 171.476 283.471 171.476Z" fill="#6C63FF"/>
<path d="M293.538 171.476H290.762L293.231 169.171C293.275 169.129 293.3 169.071 293.3 169.012C293.3 168.953 293.275 168.895 293.231 168.853C293.209 168.832 293.182 168.815 293.153 168.804C293.124 168.792 293.092 168.786 293.061 168.786C293.029 168.786 292.998 168.792 292.969 168.804C292.939 168.815 292.913 168.832 292.891 168.853L290.422 171.162V168.561C290.422 168.502 290.397 168.445 290.352 168.403C290.307 168.361 290.246 168.337 290.182 168.337C290.119 168.338 290.059 168.362 290.014 168.404C289.969 168.446 289.944 168.502 289.943 168.561V171.162L287.479 168.839C287.456 168.818 287.43 168.802 287.401 168.79C287.372 168.779 287.34 168.773 287.309 168.773C287.277 168.773 287.246 168.779 287.216 168.79C287.187 168.802 287.161 168.818 287.138 168.839C287.094 168.882 287.069 168.939 287.069 168.999C287.069 169.058 287.094 169.115 287.138 169.158L289.607 171.462H286.827C286.764 171.464 286.703 171.488 286.659 171.529C286.614 171.571 286.588 171.628 286.587 171.687C286.587 171.746 286.612 171.803 286.657 171.845C286.702 171.887 286.763 171.911 286.827 171.911H289.607L287.138 174.22C287.094 174.263 287.069 174.32 287.069 174.379C287.069 174.439 287.094 174.496 287.138 174.538C287.185 174.579 287.245 174.601 287.309 174.601C287.372 174.601 287.433 174.579 287.479 174.538L289.943 172.229V174.825C289.943 174.885 289.968 174.942 290.013 174.984C290.058 175.026 290.119 175.05 290.182 175.05C290.246 175.05 290.307 175.026 290.352 174.984C290.397 174.942 290.422 174.885 290.422 174.825V172.229L292.891 174.538C292.937 174.579 292.998 174.601 293.061 174.601C293.124 174.601 293.185 174.579 293.231 174.538C293.275 174.496 293.3 174.439 293.3 174.379C293.3 174.32 293.275 174.263 293.231 174.22L290.762 171.911H293.538C293.601 171.911 293.662 171.887 293.707 171.845C293.752 171.803 293.777 171.746 293.777 171.687C293.774 171.63 293.747 171.576 293.702 171.537C293.658 171.498 293.599 171.476 293.538 171.476Z" fill="#6C63FF"/>
<path d="M303.604 171.476H300.829L303.297 169.171C303.341 169.129 303.366 169.071 303.366 169.012C303.366 168.953 303.341 168.895 303.297 168.853C303.275 168.832 303.248 168.815 303.219 168.804C303.19 168.792 303.159 168.786 303.127 168.786C303.095 168.786 303.064 168.792 303.035 168.804C303.006 168.815 302.979 168.832 302.957 168.853L300.488 171.162V168.561C300.488 168.502 300.463 168.445 300.418 168.403C300.373 168.361 300.312 168.337 300.249 168.337C300.185 168.338 300.125 168.362 300.081 168.404C300.036 168.446 300.01 168.502 300.009 168.561V171.162L297.545 168.839C297.523 168.818 297.496 168.802 297.467 168.79C297.438 168.779 297.407 168.773 297.375 168.773C297.343 168.773 297.312 168.779 297.283 168.79C297.254 168.802 297.227 168.818 297.205 168.839C297.161 168.882 297.136 168.939 297.136 168.999C297.136 169.058 297.161 169.115 297.205 169.158L299.673 171.462H296.893C296.83 171.464 296.77 171.488 296.725 171.529C296.68 171.571 296.655 171.628 296.654 171.687C296.654 171.746 296.679 171.803 296.724 171.845C296.769 171.887 296.83 171.911 296.893 171.911H299.673L297.205 174.22C297.161 174.263 297.136 174.32 297.136 174.379C297.136 174.439 297.161 174.496 297.205 174.538C297.251 174.579 297.312 174.601 297.375 174.601C297.438 174.601 297.499 174.579 297.545 174.538L300.009 172.229V174.825C300.009 174.885 300.034 174.942 300.079 174.984C300.124 175.026 300.185 175.05 300.249 175.05C300.312 175.05 300.373 175.026 300.418 174.984C300.463 174.942 300.488 174.885 300.488 174.825V172.229L302.957 174.538C303.003 174.579 303.064 174.601 303.127 174.601C303.19 174.601 303.251 174.579 303.297 174.538C303.341 174.496 303.366 174.439 303.366 174.379C303.366 174.32 303.341 174.263 303.297 174.22L300.829 171.911H303.604C303.668 171.911 303.729 171.887 303.774 171.845C303.818 171.803 303.844 171.746 303.844 171.687C303.84 171.63 303.813 171.576 303.769 171.537C303.724 171.498 303.665 171.476 303.604 171.476Z" fill="#6C63FF"/>
<path d="M313.67 171.476H310.895L313.363 169.171C313.408 169.129 313.432 169.071 313.432 169.012C313.432 168.953 313.408 168.895 313.363 168.853C313.341 168.832 313.315 168.815 313.285 168.804C313.256 168.792 313.225 168.786 313.193 168.786C313.162 168.786 313.13 168.792 313.101 168.804C313.072 168.815 313.045 168.832 313.023 168.853L310.555 171.162V168.561C310.555 168.502 310.529 168.445 310.484 168.403C310.439 168.361 310.378 168.337 310.315 168.337C310.252 168.338 310.191 168.362 310.147 168.404C310.102 168.446 310.076 168.502 310.075 168.561V171.162L307.611 168.839C307.589 168.818 307.563 168.802 307.533 168.79C307.504 168.779 307.473 168.773 307.441 168.773C307.409 168.773 307.378 168.779 307.349 168.79C307.32 168.802 307.293 168.818 307.271 168.839C307.227 168.882 307.202 168.939 307.202 168.999C307.202 169.058 307.227 169.115 307.271 169.158L309.74 171.462H306.959C306.896 171.464 306.836 171.488 306.791 171.529C306.747 171.571 306.721 171.628 306.72 171.687C306.72 171.746 306.745 171.803 306.79 171.845C306.835 171.887 306.896 171.911 306.959 171.911H309.74L307.271 174.22C307.227 174.263 307.202 174.32 307.202 174.379C307.202 174.439 307.227 174.496 307.271 174.538C307.317 174.579 307.378 174.601 307.441 174.601C307.504 174.601 307.565 174.579 307.611 174.538L310.075 172.229V174.825C310.075 174.885 310.1 174.942 310.145 174.984C310.19 175.026 310.251 175.05 310.315 175.05C310.378 175.05 310.439 175.026 310.484 174.984C310.529 174.942 310.555 174.885 310.555 174.825V172.229L313.023 174.538C313.069 174.579 313.13 174.601 313.193 174.601C313.256 174.601 313.317 174.579 313.363 174.538C313.408 174.496 313.432 174.439 313.432 174.379C313.432 174.32 313.408 174.263 313.363 174.22L310.895 171.911H313.67C313.734 171.911 313.795 171.887 313.84 171.845C313.885 171.803 313.91 171.746 313.91 171.687C313.906 171.63 313.879 171.576 313.835 171.537C313.79 171.498 313.731 171.476 313.67 171.476Z" fill="#6C63FF"/>
<path d="M323.737 171.476H320.961L323.43 169.171C323.474 169.129 323.499 169.071 323.499 169.012C323.499 168.953 323.474 168.895 323.43 168.853C323.408 168.832 323.381 168.815 323.352 168.804C323.323 168.792 323.291 168.786 323.26 168.786C323.228 168.786 323.197 168.792 323.168 168.804C323.138 168.815 323.112 168.832 323.09 168.853L320.621 171.162V168.561C320.621 168.502 320.596 168.445 320.551 168.403C320.506 168.361 320.445 168.337 320.381 168.337C320.318 168.338 320.258 168.362 320.213 168.404C320.168 168.446 320.143 168.502 320.142 168.561V171.162L317.678 168.839C317.655 168.818 317.629 168.802 317.6 168.79C317.571 168.779 317.539 168.773 317.508 168.773C317.476 168.773 317.445 168.779 317.415 168.79C317.386 168.802 317.36 168.818 317.337 168.839C317.293 168.882 317.268 168.939 317.268 168.999C317.268 169.058 317.293 169.115 317.337 169.158L319.806 171.462H317.026C316.963 171.464 316.902 171.488 316.858 171.529C316.813 171.571 316.787 171.628 316.786 171.687C316.786 171.746 316.811 171.803 316.856 171.845C316.901 171.887 316.962 171.911 317.026 171.911H319.806L317.337 174.22C317.293 174.263 317.268 174.32 317.268 174.379C317.268 174.439 317.293 174.496 317.337 174.538C317.384 174.579 317.444 174.601 317.508 174.601C317.571 174.601 317.632 174.579 317.678 174.538L320.142 172.229V174.825C320.142 174.885 320.167 174.942 320.212 174.984C320.257 175.026 320.318 175.05 320.381 175.05C320.445 175.05 320.506 175.026 320.551 174.984C320.596 174.942 320.621 174.885 320.621 174.825V172.229L323.09 174.538C323.136 174.579 323.197 174.601 323.26 174.601C323.323 174.601 323.384 174.579 323.43 174.538C323.474 174.496 323.499 174.439 323.499 174.379C323.499 174.32 323.474 174.263 323.43 174.22L320.961 171.911H323.737C323.8 171.911 323.861 171.887 323.906 171.845C323.951 171.803 323.976 171.746 323.976 171.687C323.973 171.63 323.946 171.576 323.901 171.537C323.857 171.498 323.798 171.476 323.737 171.476Z" fill="#6C63FF"/>
<path d="M333.803 171.476H331.027L333.496 169.171C333.54 169.129 333.565 169.071 333.565 169.012C333.565 168.953 333.54 168.895 333.496 168.853C333.474 168.832 333.447 168.815 333.418 168.804C333.389 168.792 333.357 168.786 333.326 168.786C333.294 168.786 333.263 168.792 333.234 168.804C333.204 168.815 333.178 168.832 333.156 168.853L330.687 171.162V168.561C330.687 168.502 330.662 168.445 330.617 168.403C330.572 168.361 330.511 168.337 330.447 168.337C330.384 168.338 330.324 168.362 330.279 168.404C330.235 168.446 330.209 168.502 330.208 168.561V171.162L327.744 168.839C327.722 168.818 327.695 168.802 327.666 168.79C327.637 168.779 327.605 168.773 327.574 168.773C327.542 168.773 327.511 168.779 327.482 168.79C327.452 168.802 327.426 168.818 327.404 168.839C327.359 168.882 327.335 168.939 327.335 168.999C327.335 169.058 327.359 169.115 327.404 169.158L329.872 171.462H327.092C327.029 171.464 326.969 171.488 326.924 171.529C326.879 171.571 326.854 171.628 326.852 171.687C326.852 171.746 326.878 171.803 326.922 171.845C326.967 171.887 327.028 171.911 327.092 171.911H329.872L327.404 174.22C327.359 174.263 327.335 174.32 327.335 174.379C327.335 174.439 327.359 174.496 327.404 174.538C327.45 174.579 327.511 174.601 327.574 174.601C327.637 174.601 327.698 174.579 327.744 174.538L330.208 172.229V174.825C330.208 174.885 330.233 174.942 330.278 174.984C330.323 175.026 330.384 175.05 330.447 175.05C330.511 175.05 330.572 175.026 330.617 174.984C330.662 174.942 330.687 174.885 330.687 174.825V172.229L333.156 174.538C333.202 174.579 333.263 174.601 333.326 174.601C333.389 174.601 333.45 174.579 333.496 174.538C333.54 174.496 333.565 174.439 333.565 174.379C333.565 174.32 333.54 174.263 333.496 174.22L331.027 171.911H333.803C333.866 171.911 333.927 171.887 333.972 171.845C334.017 171.803 334.043 171.746 334.043 171.687C334.039 171.63 334.012 171.576 333.967 171.537C333.923 171.498 333.864 171.476 333.803 171.476Z" fill="#6C63FF"/>
<path d="M343.869 171.476H341.094L343.562 169.171C343.606 169.129 343.631 169.071 343.631 169.012C343.631 168.953 343.606 168.895 343.562 168.853C343.54 168.832 343.513 168.815 343.484 168.804C343.455 168.792 343.424 168.786 343.392 168.786C343.36 168.786 343.329 168.792 343.3 168.804C343.271 168.815 343.244 168.832 343.222 168.853L340.753 171.162V168.561C340.753 168.502 340.728 168.445 340.683 168.403C340.638 168.361 340.577 168.337 340.514 168.337C340.45 168.338 340.39 168.362 340.345 168.404C340.301 168.446 340.275 168.502 340.274 168.561V171.162L337.81 168.839C337.788 168.818 337.761 168.802 337.732 168.79C337.703 168.779 337.671 168.773 337.64 168.773C337.608 168.773 337.577 168.779 337.548 168.79C337.518 168.802 337.492 168.818 337.47 168.839C337.425 168.882 337.401 168.939 337.401 168.999C337.401 169.058 337.425 169.115 337.47 169.158L339.938 171.462H337.158C337.095 171.464 337.035 171.488 336.99 171.529C336.945 171.571 336.92 171.628 336.918 171.687C336.918 171.746 336.944 171.803 336.989 171.845C337.034 171.887 337.095 171.911 337.158 171.911H339.938L337.47 174.22C337.425 174.263 337.401 174.32 337.401 174.379C337.401 174.439 337.425 174.496 337.47 174.538C337.516 174.579 337.577 174.601 337.64 174.601C337.703 174.601 337.764 174.579 337.81 174.538L340.274 172.229V174.825C340.274 174.885 340.299 174.942 340.344 174.984C340.389 175.026 340.45 175.05 340.514 175.05C340.577 175.05 340.638 175.026 340.683 174.984C340.728 174.942 340.753 174.885 340.753 174.825V172.229L343.222 174.538C343.268 174.579 343.329 174.601 343.392 174.601C343.455 174.601 343.516 174.579 343.562 174.538C343.606 174.496 343.631 174.439 343.631 174.379C343.631 174.32 343.606 174.263 343.562 174.22L341.094 171.911H343.869C343.933 171.911 343.994 171.887 344.038 171.845C344.083 171.803 344.109 171.746 344.109 171.687C344.105 171.63 344.078 171.576 344.034 171.537C343.989 171.498 343.93 171.476 343.869 171.476Z" fill="#6C63FF"/>
<path d="M353.935 171.476H351.16L353.629 169.171C353.673 169.129 353.698 169.071 353.698 169.012C353.698 168.953 353.673 168.895 353.629 168.853C353.606 168.832 353.58 168.815 353.551 168.804C353.521 168.792 353.49 168.786 353.458 168.786C353.427 168.786 353.395 168.792 353.366 168.804C353.337 168.815 353.311 168.832 353.288 168.853L350.82 171.162V168.561C350.82 168.502 350.794 168.445 350.749 168.403C350.704 168.361 350.644 168.337 350.58 168.337C350.517 168.338 350.457 168.362 350.412 168.404C350.367 168.446 350.342 168.502 350.34 168.561V171.162L347.876 168.839C347.854 168.818 347.828 168.802 347.798 168.79C347.769 168.779 347.738 168.773 347.706 168.773C347.675 168.773 347.643 168.779 347.614 168.79C347.585 168.802 347.558 168.818 347.536 168.839C347.492 168.882 347.467 168.939 347.467 168.999C347.467 169.058 347.492 169.115 347.536 169.158L350.005 171.462H347.225C347.161 171.464 347.101 171.488 347.056 171.529C347.012 171.571 346.986 171.628 346.985 171.687C346.985 171.746 347.01 171.803 347.055 171.845C347.1 171.887 347.161 171.911 347.225 171.911H350.005L347.536 174.22C347.492 174.263 347.467 174.32 347.467 174.379C347.467 174.439 347.492 174.496 347.536 174.538C347.582 174.579 347.643 174.601 347.706 174.601C347.769 174.601 347.83 174.579 347.876 174.538L350.34 172.229V174.825C350.34 174.885 350.366 174.942 350.41 174.984C350.455 175.026 350.516 175.05 350.58 175.05C350.644 175.05 350.704 175.026 350.749 174.984C350.794 174.942 350.82 174.885 350.82 174.825V172.229L353.288 174.538C353.334 174.579 353.395 174.601 353.458 174.601C353.522 174.601 353.582 174.579 353.629 174.538C353.673 174.496 353.698 174.439 353.698 174.379C353.698 174.32 353.673 174.263 353.629 174.22L351.16 171.911H353.935C353.999 171.911 354.06 171.887 354.105 171.845C354.15 171.803 354.175 171.746 354.175 171.687C354.171 171.63 354.145 171.576 354.1 171.537C354.055 171.498 353.997 171.476 353.935 171.476Z" fill="#6C63FF"/>
<path d="M364.002 171.476H361.226L363.695 169.171C363.739 169.129 363.764 169.071 363.764 169.012C363.764 168.953 363.739 168.895 363.695 168.853C363.673 168.832 363.646 168.815 363.617 168.804C363.588 168.792 363.556 168.786 363.525 168.786C363.493 168.786 363.462 168.792 363.433 168.804C363.403 168.815 363.377 168.832 363.355 168.853L360.886 171.162V168.561C360.886 168.502 360.861 168.445 360.816 168.403C360.771 168.361 360.71 168.337 360.646 168.337C360.583 168.338 360.523 168.362 360.478 168.404C360.434 168.446 360.408 168.502 360.407 168.561V171.162L357.943 168.839C357.921 168.818 357.894 168.802 357.865 168.79C357.836 168.779 357.804 168.773 357.773 168.773C357.741 168.773 357.71 168.779 357.68 168.79C357.651 168.802 357.625 168.818 357.602 168.839C357.558 168.882 357.534 168.939 357.534 168.999C357.534 169.058 357.558 169.115 357.602 169.158L360.071 171.462H357.291C357.228 171.464 357.167 171.488 357.123 171.529C357.078 171.571 357.052 171.628 357.051 171.687C357.051 171.746 357.077 171.803 357.121 171.845C357.166 171.887 357.227 171.911 357.291 171.911H360.071L357.602 174.22C357.558 174.263 357.534 174.32 357.534 174.379C357.534 174.439 357.558 174.496 357.602 174.538C357.649 174.579 357.709 174.601 357.773 174.601C357.836 174.601 357.897 174.579 357.943 174.538L360.407 172.229V174.825C360.407 174.885 360.432 174.942 360.477 174.984C360.522 175.026 360.583 175.05 360.646 175.05C360.71 175.05 360.771 175.026 360.816 174.984C360.861 174.942 360.886 174.885 360.886 174.825V172.229L363.355 174.538C363.401 174.579 363.462 174.601 363.525 174.601C363.588 174.601 363.649 174.579 363.695 174.538C363.739 174.496 363.764 174.439 363.764 174.379C363.764 174.32 363.739 174.263 363.695 174.22L361.226 171.911H364.002C364.065 171.911 364.126 171.887 364.171 171.845C364.216 171.803 364.241 171.746 364.241 171.687C364.238 171.63 364.211 171.576 364.166 171.537C364.122 171.498 364.063 171.476 364.002 171.476Z" fill="#6C63FF"/>
<path d="M441.172 226.024C441.158 225.482 441.086 224.942 440.956 224.414C440.525 222.898 439.552 221.064 437.951 220.607C436.298 220.134 434.701 219.502 433.186 218.724C432.898 213.917 434.077 208.998 432.793 204.339C432.313 202.635 431.523 201.003 431.312 199.259C431.048 197.088 431.681 194.775 430.756 192.775C430.027 191.197 428.426 190.085 426.705 189.502C424.984 188.919 423.129 188.762 421.303 188.605C419.002 188.43 411.553 187.605 408.955 189.529C408.776 189.659 408.615 189.809 408.476 189.977V189.977C408.418 190.051 408.367 190.129 408.322 190.21L408.298 190.246C408.246 190.339 408.203 190.437 408.169 190.537V190.537C408.132 190.647 408.105 190.76 408.087 190.874C408.087 190.91 408.087 190.945 408.087 190.981C408.087 191.017 408.087 191.138 408.087 191.219V191.34C408.087 191.421 408.087 191.501 408.087 191.587C408.087 191.672 408.087 191.649 408.087 191.681C408.121 192.084 408.183 192.488 408.183 192.887C408.188 193.086 408.169 193.284 408.126 193.479C407.966 194.008 407.695 194.502 407.33 194.932V194.932L407.244 195.048C407.191 195.12 407.138 195.187 407.09 195.259C407.042 195.331 407.004 195.385 406.966 195.447C406.927 195.51 406.889 195.551 406.855 195.609C406.809 195.683 406.767 195.759 406.731 195.837C406.731 195.882 406.678 195.923 406.659 195.968C406.599 196.089 406.551 196.215 406.515 196.344C406.403 196.734 406.393 197.143 406.486 197.537C406.615 198.04 406.838 198.518 407.143 198.949C407.263 199.133 407.392 199.313 407.526 199.492L407.862 199.918C407.799 200.334 407.766 200.753 407.761 201.173C407.762 202.578 408.102 203.963 408.758 205.226C409.414 206.489 410.368 207.596 411.548 208.464C411.738 210.358 411.717 212.265 411.486 214.154C411.443 214.549 411.39 214.948 411.332 215.343C411.275 215.737 411.232 215.997 411.174 216.325C410.473 216.419 409.758 216.368 409.08 216.177C408.767 216.046 408.447 215.931 408.121 215.831C406.726 215.504 405.302 216.805 403.922 216.41C403.922 216.473 403.883 216.531 403.859 216.589C403.571 216.422 403.24 216.33 402.901 216.325C402.081 216.289 401.415 215.733 400.82 215.208L398.994 213.598C398.875 213.5 398.769 213.389 398.678 213.267C398.58 213.092 398.505 212.907 398.457 212.715C398.15 211.787 397.407 211.047 396.688 210.343C396.552 210.183 396.371 210.06 396.166 209.989C396.086 209.978 396.006 209.978 395.926 209.989C395.877 209.926 395.824 209.866 395.768 209.81C395.644 209.676 395.511 209.551 395.37 209.433C394.498 208.68 394.411 208.034 393.654 207.191C392.994 206.387 392.394 205.54 391.861 204.657C391.799 204.187 391.713 203.702 391.607 203.214C391.366 202.095 391.014 200.999 390.558 199.94L389.599 197.954L389.489 198.057C388.794 197.088 388.051 196.559 387.384 196.685C386.267 196.9 385.716 198.927 385.893 201.577L386.277 204.267C386.277 204.335 386.311 204.402 386.33 204.469C386.261 204.788 386.225 205.112 386.224 205.438C386.224 205.814 386.598 206.092 386.795 206.429C387.109 206.884 387.276 207.415 387.274 207.958C387.25 208.15 387.188 208.334 387.178 208.523C387.204 208.944 387.361 209.349 387.629 209.688L390.025 213.455L390.505 214.244L390.534 214.28C390.685 214.555 390.905 214.792 391.176 214.971C391.27 215.914 391.537 216.835 391.967 217.692C392.048 217.863 392.139 218.024 392.235 218.186C392.88 219.176 393.638 220.098 394.498 220.934L395.639 222.131C396.765 223.306 397.892 224.486 399.114 225.571C399.551 226.006 400.08 226.353 400.667 226.589C400.954 226.696 401.267 226.731 401.574 226.689C401.88 226.647 402.169 226.531 402.412 226.351C402.412 226.907 402.412 227.463 402.412 228.019C402.59 228.029 402.762 228.084 402.91 228.177C403.057 228.27 403.176 228.398 403.253 228.549C403.331 228.699 403.363 228.866 403.349 229.032C403.334 229.198 403.272 229.358 403.169 229.494C402.163 231.911 401.146 234.35 399.622 236.516C400.698 237.112 401.695 237.824 402.594 238.637C403.177 239.241 403.696 239.898 404.142 240.596C404.185 240.928 404.219 241.256 404.238 241.583C404.593 246.928 402.383 252.232 400.403 257.326C399.833 258.77 399.21 260.281 399.258 261.783C398.882 262 398.523 262.241 398.184 262.505C398.577 263.465 398.424 264.321 398.38 265.348C398.366 265.964 398.231 266.571 397.983 267.142C397.774 267.537 397.544 267.921 397.292 268.294C396.051 270.343 395.778 272.778 395.528 275.119C395.38 276.531 395.965 278.257 395.279 279.522C394.095 281.692 393.045 284.006 392.882 286.418C392.877 286.961 392.803 287.501 392.662 288.028C392.513 288.476 392.25 288.857 392.115 289.297C391.977 289.886 391.945 290.492 392.02 291.09C392.111 293.24 391.769 295.386 391.013 297.417C390.414 299.018 389.752 300.731 390.222 302.377C389.066 303.513 388.351 304.98 388.194 306.542C388.182 306.942 388.131 307.34 388.041 307.73C387.894 308.13 387.702 308.514 387.466 308.874C386.501 310.518 386.049 312.382 386.162 314.255C384.724 316.08 384.005 318.331 383.578 320.568C383.152 322.806 382.965 325.083 382.418 327.294C381.69 330.218 380.371 333.173 380.113 336.168C378.559 337.096 377.888 338.894 377.591 340.593C377.294 342.293 377.246 344.078 376.484 345.647C376.091 346.463 375.525 347.194 375.151 348.028C374.889 348.692 374.696 349.378 374.576 350.077C374.346 351.171 374.145 352.391 374.428 353.44C374.021 353.843 373.546 354.181 373.023 354.44C373.1 354.162 373.162 353.884 373.215 353.601C371.978 354.651 369.735 354.283 368.747 355.543C368.451 355.949 368.335 356.447 368.425 356.932C368.514 357.417 368.802 357.85 369.227 358.139C369.536 358.315 369.87 358.45 370.219 358.538C372.616 359.256 375.079 359.978 377.543 359.597C377.835 359.567 378.117 359.483 378.373 359.35C378.693 359.129 378.957 358.844 379.144 358.516C379.513 357.969 379.882 357.422 380.247 356.875C381.13 357.121 382.028 357.317 382.936 357.462C383.027 358.18 383.094 358.897 383.128 359.614C383.607 359.704 384.249 359.731 384.475 359.314C384.543 359.156 384.571 358.986 384.556 358.816C384.556 358.498 384.604 358.076 384.633 357.646H384.729C386.191 357.701 387.646 357.426 388.971 356.843C388.458 352.871 390.15 348.987 391.617 345.23C393.165 341.275 394.493 337.248 395.83 333.222C396.789 330.388 397.848 327.644 398.788 324.805C399.97 321.218 401.158 317.631 402.349 314.044C402.867 312.466 403.39 310.905 403.984 309.336C405.235 306.16 406.72 303.069 408.428 300.085C408.907 299.238 409.386 298.399 409.779 297.52C410.259 296.449 410.599 295.328 410.982 294.22C411.818 291.948 412.824 289.733 413.993 287.593C414.026 287.535 414.05 287.481 414.084 287.427C414.472 288.911 414.86 290.418 415.119 291.911C415.47 293.742 415.497 295.614 415.201 297.453C414.971 298.704 414.534 299.942 414.587 301.211C414.659 302.964 415.661 304.556 416.155 306.246C416.473 307.511 416.653 308.803 416.692 310.102C416.826 312.12 417.995 314.385 417.171 316.254C414.606 322.178 415.848 328.868 414.386 335.087C413.633 338.28 411.328 341.28 411.51 344.544C411.638 346.861 411.855 349.171 412.162 351.476C412.236 352.203 412.438 352.914 412.761 353.579C412.952 353.929 413.172 354.265 413.418 354.583C413.207 354.66 413.029 354.861 412.876 355.287C412.483 356.408 412.876 357.798 413.94 358.426C414.374 358.643 414.841 358.794 415.325 358.875C415.977 359.048 416.652 359.135 417.329 359.135C417.54 359.124 417.75 359.1 417.957 359.063C418.698 359.354 419.455 359.609 420.224 359.825C420.224 360.009 420.263 360.193 420.287 360.377C420.288 360.473 420.311 360.568 420.354 360.655C420.397 360.742 420.459 360.82 420.536 360.883C420.656 360.936 420.788 360.957 420.919 360.946H423.522C423.522 360.744 423.522 360.538 423.522 360.336C423.82 360.365 424.121 360.336 424.406 360.249C424.691 360.163 424.953 360.021 425.176 359.834C425.407 359.56 425.57 359.241 425.655 358.902C426.365 356.651 427.069 354.398 427.769 352.144C428.608 349.653 428.958 347.04 428.8 344.432C427.875 336.168 429.907 327.877 429.246 319.591C428.848 314.61 429.121 309.602 430.061 304.686C430.276 303.574 430.54 302.444 430.636 301.336C430.847 299.247 430.588 297.135 430.746 295.059C430.799 294.332 430.904 293.61 431 292.889C431.657 288.408 432.001 283.892 432.031 279.369C432.016 277.871 431.917 276.374 431.733 274.885C432.233 274.766 432.687 274.518 433.042 274.168C433.469 273.648 433.358 272.917 433.354 272.253C433.354 270.666 434.068 269.168 434.643 267.671C435.381 265.605 435.986 263.5 436.455 261.366C436.95 259.647 437.221 257.878 437.26 256.098C437.26 255.918 437.251 255.739 437.232 255.559C437.412 255.442 437.563 255.289 437.673 255.111C437.798 254.848 437.875 254.568 437.903 254.282C438.075 253.138 438.253 251.99 438.425 250.842C438.553 250.02 438.679 249.2 438.804 248.381L440.328 238.431C440.458 237.565 440.592 236.704 440.721 235.843L441.119 233.27C441.162 232.965 441.21 232.66 441.244 232.373C442.413 230.543 441.296 228.104 441.172 226.024ZM428.455 263.276C427.889 262.021 427.362 260.734 427.496 259.38H427.443C427.569 258.963 427.548 258.519 427.381 258.115C427.232 257.788 426.974 257.51 426.815 257.183C426.645 256.783 426.558 256.357 426.557 255.927C426.437 253.2 426.668 250.469 427.242 247.793C427.304 247.479 427.371 247.161 427.434 246.847C427.635 246.738 427.819 246.604 427.98 246.448C428.232 246.179 428.441 245.877 428.598 245.551C429.14 244.533 429.634 243.498 430.089 242.444C430.238 242.103 430.454 241.708 430.823 241.623C430.746 244.246 431.034 246.923 429.893 249.291C429.676 249.673 429.515 250.08 429.413 250.502C429.308 251.17 429.605 251.847 429.5 252.51C429.447 252.856 429.289 253.174 429.226 253.515C429.179 253.682 429.18 253.858 429.229 254.025C429.278 254.192 429.373 254.344 429.504 254.465C429.568 254.507 429.637 254.54 429.711 254.564C429.682 254.743 429.658 254.927 429.639 255.102C429.6 255.47 429.581 255.815 429.557 256.03C429.447 257.127 429.404 258.229 429.428 259.33C429.428 260.519 429.476 261.707 429.457 262.918C429.474 263.265 429.412 263.612 429.274 263.936C429.179 264.102 429.056 264.254 428.91 264.384C428.771 263.98 428.618 263.626 428.455 263.276Z" fill="url(#paint0_linear)"/>
<path d="M390.616 211.248C392.079 210.968 392.577 207.6 391.728 203.726C390.879 199.851 389.005 196.938 387.543 197.218C386.08 197.499 385.582 200.867 386.431 204.741C387.28 208.615 389.153 211.529 390.616 211.248Z" fill="#FBBEBE"/>
<path d="M412.952 355.373C412.559 356.485 412.952 357.875 414.017 358.48C414.448 358.695 414.912 358.846 415.392 358.928C416.043 359.1 416.715 359.186 417.391 359.184C418.22 359.148 419.016 358.843 419.845 358.736C419.941 358.713 420.042 358.726 420.128 358.771C420.17 358.813 420.201 358.863 420.219 358.917C420.237 358.971 420.242 359.029 420.234 359.085C420.243 359.526 420.278 359.966 420.339 360.404C420.34 360.5 420.362 360.595 420.405 360.682C420.448 360.769 420.511 360.847 420.588 360.91C420.708 360.962 420.84 360.984 420.972 360.973H423.57C423.629 358.838 423.379 356.705 422.827 354.633C422.791 354.474 422.726 354.322 422.635 354.184C422.415 353.958 422.125 353.802 421.806 353.736C421.171 353.489 420.485 353.377 419.798 353.409C418.959 353.512 418.259 354.018 417.545 354.44C416.83 354.861 415.857 355.234 414.99 355.018C414.122 354.803 413.398 354.126 412.952 355.373Z" fill="#3F3D56"/>
<path d="M374.806 353.404C374.076 354.136 373.18 354.706 372.184 355.072L371.743 355.269C371.682 355.291 371.63 355.33 371.595 355.381C371.586 355.416 371.586 355.452 371.594 355.487C371.603 355.522 371.619 355.555 371.642 355.583C372.009 356.114 372.552 356.518 373.187 356.734C373.822 356.951 374.515 356.967 375.161 356.78C375.446 356.714 375.711 356.585 375.933 356.404C376.298 355.998 376.507 355.49 376.527 354.96C376.672 354.413 376.647 353.839 376.455 353.305C375.789 351.902 375.544 352.539 374.806 353.404Z" fill="#FBBEBE"/>
<path d="M384.767 358.929C384.782 359.098 384.754 359.269 384.686 359.426C384.46 359.839 383.832 359.816 383.343 359.727C383.269 358.205 383.072 356.691 382.754 355.198C381.824 355.158 381.153 355.983 380.654 356.722L379.37 358.628C379.184 358.956 378.922 359.241 378.603 359.462C378.346 359.594 378.064 359.677 377.773 359.709C375.319 360.09 372.841 359.368 370.473 358.651C370.124 358.563 369.79 358.43 369.481 358.256C369.058 357.966 368.772 357.534 368.683 357.05C368.593 356.567 368.708 356.07 369.001 355.664C369.994 354.409 372.223 354.767 373.459 353.727C373.33 354.459 373.118 355.176 372.827 355.866C374.48 355.633 375.592 354.216 376.925 353.27C377.26 353.004 377.663 352.825 378.095 352.75C378.418 352.724 378.743 352.756 379.053 352.844C380.59 353.206 382.027 353.867 383.272 354.785C383.775 355.158 384.561 355.682 384.781 356.256C385.016 356.942 384.767 358.198 384.767 358.929Z" fill="#3F3D56"/>
<path d="M417.741 210.984C423.211 210.984 427.645 206.837 427.645 201.72C427.645 196.604 423.211 192.457 417.741 192.457C412.272 192.457 407.838 196.604 407.838 201.72C407.838 206.837 412.272 210.984 417.741 210.984Z" fill="#FBBEBE"/>
<path d="M437.251 256.416C437.211 258.187 436.942 259.947 436.45 261.658C435.981 263.782 435.376 265.879 434.638 267.935C434.068 269.428 433.354 270.926 433.359 272.509C433.359 273.168 433.474 273.899 433.042 274.419C432.658 274.784 432.174 275.043 431.642 275.168C431.377 275.234 431.133 275.357 430.928 275.527C430.723 275.698 430.564 275.911 430.463 276.15C430.013 275.521 429.676 274.827 429.466 274.096C428.607 271.633 427.808 269.156 427.069 266.666C427.002 266.523 426.973 266.366 426.984 266.21C426.996 266.054 427.048 265.903 427.137 265.769C427.258 265.67 427.4 265.596 427.554 265.55C428.045 265.362 428.495 265.092 428.881 264.752C429.063 264.601 429.212 264.42 429.322 264.218C429.462 263.897 429.525 263.551 429.509 263.205C429.509 262.016 429.509 260.833 429.476 259.644C429.456 258.547 429.501 257.45 429.61 256.358C429.61 256.142 429.653 255.797 429.692 255.429C429.763 254.725 429.907 253.909 430.315 253.636C430.923 253.255 432.745 253.766 433.435 253.856C434.624 254.008 435.832 254.187 436.992 254.398C437.16 255.059 437.247 255.736 437.251 256.416Z" fill="#3F3D56"/>
<path d="M397.264 212.092C396.88 212.809 395.96 213.154 395.25 213.607L392.82 215.168C392.658 215.305 392.467 215.409 392.261 215.476C392.054 215.542 391.835 215.568 391.617 215.553C391.419 215.485 391.238 215.38 391.084 215.246C390.93 215.111 390.807 214.949 390.721 214.769C390.722 214.757 390.722 214.745 390.721 214.733L390.217 213.944L387.82 210.186C387.554 209.85 387.399 209.447 387.375 209.029C387.375 208.836 387.447 208.657 387.466 208.464C387.472 207.923 387.305 207.392 386.986 206.94C386.795 206.603 386.411 206.325 386.421 205.949C386.402 205.454 386.494 204.961 386.689 204.5C386.941 204.075 387.301 203.714 387.739 203.451C387.964 203.299 388.194 203.155 388.434 203.003C388.561 202.921 388.702 202.861 388.851 202.823C389.249 202.747 389.642 203.057 390.045 203.07C391.775 204.155 392.441 206.209 393.803 207.688C394.57 208.531 394.646 209.177 395.514 209.93C395.653 210.047 395.787 210.173 395.917 210.303C396.088 210.478 396.233 210.674 396.348 210.886C396.506 211.271 397.46 211.724 397.264 212.092Z" fill="#3F3D56"/>
<path d="M414.261 210.989C414.975 212.401 415.531 213.953 415.325 215.504C415.283 215.925 415.141 216.331 414.908 216.692C414.218 217.683 412.77 217.863 411.51 217.921C411.244 217.9 410.977 217.929 410.723 218.006C410.47 218.083 410.235 218.207 410.033 218.369C409.865 218.598 409.782 218.873 409.799 219.151C409.815 219.428 409.93 219.693 410.124 219.903C410.53 220.307 411.033 220.615 411.591 220.8C413.585 221.62 415.738 222.297 417.904 222.109C418.911 222.019 419.889 221.746 420.891 221.607C421.983 221.496 423.08 221.439 424.179 221.437C425.483 221.392 426.782 221.271 428.081 221.15L431.522 220.831C431.711 220.834 431.893 220.771 432.035 220.656C432.289 220.378 431.963 219.97 431.647 219.76C429.821 218.495 427.496 217.625 426.456 215.724C425.976 214.827 425.828 213.76 425.473 212.791C425.118 211.823 424.553 210.949 424.332 209.962C424.215 209.097 424.162 208.225 424.174 207.352C424.186 206.473 423.844 205.621 423.215 204.967C422.53 204.371 421.538 204.218 420.608 204.182C418.316 204.088 415.877 204.599 414.252 206.11C413.815 206.518 413.441 207.007 412.991 207.375C412.54 207.742 411.927 207.85 412.224 208.334C412.521 208.819 413.106 209.119 413.422 209.545C413.743 210.005 414.023 210.487 414.261 210.989V210.989Z" fill="#FBBEBE"/>
<path d="M433.785 224.033C433.181 227.485 432.198 230.871 430.852 234.135C430.175 235.609 429.598 237.122 429.126 238.664C428.757 240.054 428.829 241.542 428.488 242.937C428.067 244.672 427.645 246.412 427.304 248.161C426.733 250.831 426.505 253.556 426.624 256.277C426.625 256.705 426.713 257.13 426.883 257.528C427.041 257.851 427.295 258.129 427.443 258.46C427.555 258.752 427.6 259.062 427.577 259.37C427.554 259.679 427.463 259.98 427.309 260.254C427.063 260.767 426.73 261.24 426.322 261.653C421.854 262.9 417.075 262.492 412.421 262.756C408.13 262.998 403.792 263.823 399.565 263.137C399.085 261.344 399.886 259.465 400.571 257.716C402.56 252.636 404.761 247.345 404.406 242.022C404.369 241.401 404.294 240.783 404.181 240.17C403.486 236.399 404.243 232.494 405.456 228.839C406.208 226.562 406.175 224.136 406.002 221.764C405.917 220.993 405.906 220.218 405.969 219.445C406.038 218.657 406.351 217.905 406.87 217.28C406.87 217.248 406.913 217.217 406.937 217.186C406.961 217.154 407.148 217.159 407.296 217.186C407.334 217.201 407.375 217.208 407.416 217.208C407.457 217.208 407.498 217.201 407.536 217.186L407.589 217.154C407.609 217.141 407.633 217.133 407.658 217.133C407.683 217.133 407.708 217.141 407.728 217.154C407.838 217.217 407.9 217.432 408.14 217.473C408.494 217.523 408.851 217.554 409.209 217.567C409.64 217.579 410.067 217.636 410.484 217.737H410.542C411.165 217.835 411.805 217.785 412.401 217.589C412.799 217.496 413.182 217.358 413.542 217.177C413.648 217.069 414.309 216.97 414.443 216.894C414.88 216.647 414.784 215.491 414.875 215.015C414.925 214.539 415.046 214.071 415.234 213.625C415.453 213.296 415.754 213.023 416.112 212.828C416.469 212.633 416.873 212.524 417.286 212.509C418.111 212.49 418.936 212.56 419.745 212.715C421.533 212.953 423.364 212.912 425.119 213.298C426.001 213.491 426.964 213.782 427.774 213.406C427.995 213.455 428.028 213.634 428.028 213.854C428.008 214.063 427.963 214.269 427.894 214.468C427.587 215.706 428.627 216.845 429.586 217.742C429.991 218.164 430.469 218.52 431 218.795C431.479 219.002 431.959 219.087 432.438 219.311C432.826 219.505 433.156 219.787 433.397 220.132C433.673 220.527 433.859 220.971 433.943 221.436C434.046 222.304 433.993 223.182 433.785 224.033Z" fill="#3F3D56"/>
<path opacity="0.1" d="M433.785 224.033C433.181 227.485 432.198 230.871 430.852 234.135C430.175 235.609 429.598 237.122 429.126 238.664C428.757 240.054 428.829 241.543 428.488 242.937C428.067 244.672 427.645 246.412 427.304 248.161C427.204 248.215 427.098 248.264 426.993 248.309C426.396 248.575 425.764 248.765 425.114 248.874C423.945 249.006 422.762 248.97 421.605 248.766L414.765 247.91C412.032 247.565 409.123 247.148 407.095 245.417C405.969 244.466 405.23 243.211 404.42 242C404.383 241.379 404.308 240.761 404.195 240.148C403.5 236.377 404.257 232.472 405.47 228.817C406.223 226.539 406.189 224.113 406.017 221.741C405.931 220.971 405.92 220.195 405.983 219.423C406.052 218.635 406.365 217.882 406.884 217.257C407.024 217.219 407.167 217.189 407.311 217.168V217.168C407.407 217.149 407.505 217.137 407.603 217.132H407.742C407.904 217.132 408.065 217.15 408.222 217.186C408.548 217.283 408.868 217.398 409.18 217.531H409.238C409.649 217.658 410.08 217.715 410.513 217.701C411.146 217.701 411.798 217.607 412.43 217.567C413.212 217.453 414.012 217.587 414.702 217.948C415.148 218.283 415.571 218.644 415.968 219.029C416.447 219.381 416.987 219.655 417.564 219.84C421.69 221.313 426.268 221.223 430.324 219.589C430.714 219.382 431.156 219.276 431.604 219.284C431.935 219.345 432.249 219.47 432.524 219.652C432.812 219.809 433.095 219.961 433.387 220.1C433.664 220.495 433.85 220.94 433.934 221.405C434.044 222.282 433.993 223.171 433.785 224.033V224.033Z" fill="black"/>
<path d="M437.96 221.064C436.051 220.519 434.217 219.766 432.496 218.822C432.219 218.642 431.906 218.517 431.575 218.455C431.126 218.45 430.683 218.555 430.291 218.759C426.236 220.393 421.66 220.484 417.535 219.011C416.959 218.824 416.42 218.55 415.939 218.199C415.541 217.815 415.118 217.455 414.673 217.118C413.096 216.163 410.915 217.284 409.151 216.67C408.839 216.539 408.519 216.424 408.193 216.325C406.798 215.997 405.379 217.298 404.008 216.903C403.498 218.2 403.121 219.539 402.882 220.903C402.687 222.469 402.583 224.043 402.57 225.62C402.57 226.566 402.522 227.512 402.57 228.458C402.739 228.484 402.9 228.543 403.044 228.63C403.187 228.717 403.31 228.831 403.404 228.965C403.467 229.121 403.493 229.288 403.48 229.455C403.466 229.621 403.414 229.783 403.327 229.929C402.326 232.337 401.309 234.772 399.79 236.928C400.861 237.525 401.855 238.236 402.752 239.045C404.43 240.704 405.254 243.031 407.066 244.565C409.108 246.291 412.018 246.713 414.736 247.053L421.576 247.91C422.735 248.113 423.919 248.15 425.09 248.022C425.739 247.911 426.369 247.72 426.964 247.452C427.353 247.3 427.707 247.081 428.009 246.807C428.262 246.538 428.47 246.236 428.627 245.91C429.169 244.897 429.663 243.861 430.118 242.811C430.276 242.439 430.516 242.004 430.947 241.973C433.488 239.83 435.885 237.632 438.425 235.489C439.446 234.698 440.362 233.794 441.153 232.799C442.413 231.054 441.268 228.584 441.153 226.476C441.139 225.937 441.066 225.401 440.937 224.876C440.525 223.347 439.556 221.517 437.96 221.064Z" fill="#6C63FF"/>
<path opacity="0.1" d="M397.264 212.092C396.88 212.809 395.96 213.155 395.25 213.607L392.82 215.168C392.658 215.305 392.467 215.409 392.261 215.476C392.054 215.542 391.835 215.568 391.617 215.553C391.419 215.485 391.238 215.381 391.084 215.246C390.93 215.111 390.806 214.949 390.72 214.769C390.72 214.666 390.72 214.554 390.72 214.446C390.702 214.083 390.754 213.72 390.874 213.374C391.112 212.867 391.481 212.423 391.948 212.083C392.85 211.284 393.923 210.672 395.097 210.289C395.28 210.223 395.479 210.204 395.672 210.236C395.747 210.254 395.818 210.282 395.883 210.321C396.055 210.496 396.2 210.692 396.314 210.904C396.506 211.271 397.46 211.724 397.264 212.092Z" fill="black"/>
<path d="M402.987 216.818C402.172 216.782 401.506 216.231 400.911 215.706L399.095 214.128C398.973 214.032 398.867 213.92 398.778 213.796C398.68 213.621 398.606 213.436 398.558 213.244C398.173 212.339 397.569 211.528 396.794 210.877C396.659 210.716 396.477 210.595 396.271 210.527C396.076 210.493 395.875 210.512 395.691 210.581C394.518 210.963 393.444 211.575 392.542 212.374C392.076 212.715 391.707 213.159 391.468 213.666C391.348 214.011 391.296 214.375 391.315 214.737C391.326 215.922 391.611 217.091 392.149 218.163C392.23 218.329 392.322 218.495 392.417 218.656C393.057 219.645 393.813 220.564 394.67 221.396L395.811 222.589C396.933 223.764 398.054 224.939 399.272 226.019C399.708 226.455 400.237 226.8 400.825 227.033C401.12 227.145 401.443 227.18 401.757 227.132C402.072 227.085 402.366 226.957 402.608 226.763C402.838 226.515 403.011 226.225 403.116 225.912C403.855 224.118 404.554 222.253 404.598 220.32C404.608 219.546 404.573 218.772 404.492 218.002C404.42 217.186 403.802 216.867 402.987 216.818Z" fill="#6C63FF"/>
<path d="M432.035 279.593C432.008 284.104 431.665 288.608 431.01 293.077C430.914 293.799 430.808 294.521 430.756 295.242C430.597 297.336 430.856 299.439 430.645 301.52C430.535 302.645 430.286 303.762 430.075 304.861C429.138 309.764 428.864 314.758 429.26 319.725C429.922 327.989 427.894 336.257 428.814 344.499C428.926 346.101 428.831 347.711 428.531 349.292C428.36 350.273 428.112 351.242 427.788 352.189C427.089 354.434 426.386 356.676 425.679 358.915C425.596 359.255 425.432 359.574 425.2 359.847C424.955 360.045 424.669 360.192 424.359 360.278C424.049 360.364 423.723 360.387 423.402 360.345C420.637 360.265 418.034 359.148 415.522 358.058C415.233 357.952 414.966 357.8 414.731 357.61C414.209 357.103 414.252 356.305 414.022 355.637C413.791 354.969 413.168 354.341 412.814 353.655C412.522 353.006 412.346 352.317 412.291 351.615C411.972 349.319 411.754 347.014 411.639 344.701C411.457 341.445 413.758 338.45 414.515 335.284C415.953 329.061 414.736 322.388 417.291 316.483C418.096 314.618 416.926 312.358 416.811 310.349C416.77 309.053 416.59 307.764 416.275 306.502C415.795 304.816 414.784 303.228 414.712 301.48C414.659 300.215 415.095 298.982 415.321 297.736C415.62 295.901 415.592 294.033 415.239 292.207C414.985 290.7 414.597 289.194 414.209 287.723L414.122 287.889C412.954 290.024 411.95 292.234 411.117 294.503C410.733 295.601 410.398 296.722 409.918 297.789C409.525 298.686 409.041 299.507 408.567 300.35C406.865 303.322 405.383 306.401 404.133 309.564C403.538 311.116 403.016 312.703 402.498 314.259L398.946 325.02C397.987 327.85 396.938 330.585 395.998 333.41C394.67 337.446 393.343 341.445 391.799 345.391C390.361 349.135 388.65 353.014 389.163 356.969C387.841 357.55 386.389 357.825 384.93 357.771C382.459 357.567 380.036 357.017 377.74 356.139C376.824 355.821 375.875 355.462 375.257 354.758C374.193 353.543 374.456 351.763 374.777 350.216C374.898 349.519 375.091 348.834 375.353 348.171C375.717 347.346 376.311 346.615 376.685 345.799C377.438 344.234 377.486 342.463 377.783 340.764C378.08 339.064 378.742 337.271 380.295 336.347C380.558 333.361 381.872 330.415 382.596 327.496C383.142 325.285 383.324 323.012 383.756 320.77C384.187 318.528 384.882 316.286 386.33 314.47C386.215 312.597 386.667 310.732 387.634 309.089C387.867 308.728 388.058 308.345 388.204 307.946C388.293 307.556 388.345 307.16 388.357 306.762C388.516 305.204 389.228 303.74 390.38 302.605C389.901 300.968 390.567 299.26 391.166 297.673C391.921 295.647 392.262 293.507 392.173 291.364C392.099 290.765 392.129 290.159 392.264 289.57C392.398 289.122 392.662 288.741 392.815 288.31C392.952 287.783 393.024 287.243 393.031 286.7C393.218 284.275 394.268 281.988 395.428 279.822C396.118 278.558 395.533 276.84 395.677 275.432C395.926 273.092 396.199 270.67 397.441 268.63C397.671 268.244 397.92 267.877 398.126 267.478C398.376 266.908 398.511 266.3 398.524 265.684C398.567 264.657 398.721 263.805 398.328 262.85C400.892 260.855 404.391 260.294 407.728 260.16C411.064 260.025 414.439 260.308 417.703 259.644C418.662 259.442 419.62 259.164 420.632 259.03C422.928 258.716 425.257 259.205 427.525 259.689C427.367 261.034 427.894 262.326 428.483 263.577C430.785 268.644 431.993 274.088 432.035 279.593V279.593Z" fill="#33313F"/>
<path opacity="0.1" d="M420.747 280.62L415.239 292.207C414.985 290.7 414.597 289.194 414.209 287.723L414.122 287.889V287.647L417.123 281.472L420.747 280.62Z" fill="black"/>
<path opacity="0.1" d="M437.251 256.416C436.933 256.638 436.554 256.771 436.158 256.797C435.551 256.817 434.944 256.74 434.365 256.568L430.051 255.559C429.916 255.528 429.784 255.485 429.658 255.429C429.73 254.725 429.874 253.909 430.281 253.636C430.89 253.255 432.711 253.766 433.402 253.856C434.59 254.008 435.798 254.187 436.958 254.398C437.138 255.058 437.236 255.735 437.251 256.416V256.416Z" fill="black"/>
<path d="M440.898 229.736C440.989 230.108 441.119 230.476 441.196 230.853C441.325 231.777 441.291 232.714 441.095 233.628L440.702 236.193L440.309 238.771L438.789 248.694L438.415 251.152L437.888 254.582C437.863 254.867 437.785 255.146 437.658 255.407C437.501 255.651 437.282 255.854 437.02 255.999C436.758 256.144 436.462 256.225 436.158 256.236C435.551 256.254 434.945 256.177 434.365 256.008L430.051 254.994C429.862 254.963 429.682 254.894 429.523 254.793C429.392 254.672 429.296 254.521 429.248 254.355C429.199 254.188 429.198 254.013 429.245 253.846C429.308 253.506 429.466 253.187 429.519 252.846C429.624 252.183 429.327 251.501 429.432 250.842C429.536 250.422 429.697 250.017 429.912 249.636C431.35 246.663 430.516 243.193 431.005 239.964C431.445 237.423 432.592 235.035 434.331 233.041C435.405 231.782 436.638 230.65 438.003 229.669C438.54 229.279 439.393 228.476 440.069 228.324C440.937 228.153 440.755 229.171 440.898 229.736Z" fill="#6C63FF"/>
<path d="M408.25 191.111C407.934 192.053 408.427 193.089 408.202 194.048C407.958 195.106 406.894 195.842 406.592 196.904C406.112 198.523 407.579 199.998 408.653 201.344C412.631 206.339 412.109 213.253 410.748 219.347C409.652 224.236 408.137 229.034 406.218 233.695C405.619 235.144 404.957 236.615 403.778 237.7C405.983 237.108 408.327 236.511 410.537 237.085C413.336 237.812 415.752 240.354 418.59 239.776C420.296 239.421 421.494 238.005 423.028 237.22C425.904 235.772 429.37 236.682 432.577 237.148C433.268 237.301 433.991 237.266 434.662 237.049C435.175 236.791 435.61 236.417 435.928 235.96C437.359 234.242 438.216 232.168 438.391 229.996C438.467 228.915 438.297 227.831 437.891 226.816C437.485 225.801 436.854 224.878 436.038 224.109C435.357 223.508 434.542 223.024 434.02 222.315C433.512 221.488 433.239 220.552 433.229 219.598C432.85 214.665 434.135 209.63 432.812 204.859C432.333 203.16 431.551 201.532 431.34 199.792C431.077 197.626 431.705 195.308 430.784 193.326C430.06 191.752 428.464 190.636 426.743 190.062C425.022 189.488 423.182 189.327 421.355 189.165C418.729 188.959 409.348 187.905 408.25 191.111Z" fill="#33313F"/>
<g opacity="0.1">
<path opacity="0.1" d="M410.748 219.347C409.658 224.216 408.151 228.994 406.242 233.637C406.572 233.023 406.85 232.377 407.114 231.736C409.036 227.075 410.551 222.277 411.644 217.387C413.01 211.289 413.533 204.384 409.554 199.384C408.595 198.191 407.363 196.9 407.407 195.501C407.052 195.924 406.777 196.4 406.592 196.909C406.112 198.528 407.579 200.003 408.653 201.348C412.631 206.339 412.109 213.253 410.748 219.347Z" fill="black"/>
<path opacity="0.1" d="M408.26 193.595C408.644 193.149 408.931 192.635 409.103 192.084C409.177 191.418 409.158 190.746 409.046 190.084C408.677 190.344 408.399 190.702 408.25 191.111C407.967 191.905 408.293 192.766 408.26 193.595Z" fill="black"/>
<path opacity="0.1" d="M436.829 233.987C436.511 234.443 436.076 234.816 435.563 235.072C434.893 235.294 434.169 235.328 433.478 235.171C430.271 234.722 426.767 233.799 423.93 235.247C422.391 236.027 421.197 237.444 419.486 237.803C416.653 238.395 414.237 235.852 411.438 235.112C409.453 234.597 407.363 235.023 405.364 235.561C404.967 236.353 404.431 237.078 403.778 237.704C405.983 237.112 408.327 236.516 410.537 237.09C413.336 237.816 415.752 240.359 418.59 239.78C420.296 239.426 421.494 238.009 423.028 237.224C425.904 235.776 429.37 236.686 432.577 237.153C433.268 237.305 433.991 237.271 434.662 237.054C435.175 236.796 435.61 236.421 435.928 235.964C436.796 234.892 437.467 233.692 437.912 232.413C437.592 232.961 437.23 233.487 436.829 233.987Z" fill="black"/>
</g>
</g>
<defs>
<filter id="filter0_d" x="29.5352" y="53.2383" width="476.801" height="267.398" filterUnits="userSpaceOnUse" color-interpolation-filters="sRGB">
<feFlood flood-opacity="0" result="BackgroundImageFix"/>
<feColorMatrix in="SourceAlpha" type="matrix" values="0 0 0 0 0 0 0 0 0 0 0 0 0 0 0 0 0 0 127 0" result="hardAlpha"/>
<feOffset dy="4"/>
<feGaussianBlur stdDeviation="2"/>
<feComposite in2="hardAlpha" operator="out"/>
<feColorMatrix type="matrix" values="0 0 0 0 0 0 0 0 0 0 0 0 0 0 0 0 0 0 0.25 0"/>
<feBlend mode="normal" in2="BackgroundImageFix" result="effect1_dropShadow"/>
<feBlend mode="normal" in="SourceGraphic" in2="effect1_dropShadow" result="shape"/>
</filter>
<linearGradient id="paint0_linear" x1="368.426" y1="274.607" x2="441.766" y2="274.607" gradientUnits="userSpaceOnUse">
<stop stop-color="#808080" stop-opacity="0.25"/>
<stop offset="0.54" stop-color="#808080" stop-opacity="0.12"/>
<stop offset="1" stop-color="#808080" stop-opacity="0.1"/>
</linearGradient>
<clipPath id="clip0">
<rect width="559" height="361" fill="white"/>
</clipPath>
</defs>
</svg>
