<svg width="175" height="175" viewBox="0 0 175 175" fill="none" xmlns="http://www.w3.org/2000/svg">
<path d="M87.5 175C110.706 175 132.962 165.781 149.372 149.372C165.781 132.962 175 110.706 175 87.5C175 64.2936 165.781 42.0376 149.372 25.6282C132.962 9.21873 110.706 0 87.5 0C64.2936 0 42.0376 9.21873 25.6282 25.6282C9.21873 42.0376 0 64.2936 0 87.5C0 110.706 9.21873 132.962 25.6282 149.372C42.0376 165.781 64.2936 175 87.5 175ZM76.5625 71.0938C76.5625 76.5734 74.7688 75.425 72.0234 73.6641C70.2188 72.5047 68.0094 71.0938 65.625 71.0938C63.2406 71.0938 61.0312 72.5156 59.2266 73.6641C56.4813 75.425 54.6875 76.5625 54.6875 71.0938C54.6875 62.0375 59.5875 54.6875 65.625 54.6875C71.6625 54.6875 76.5625 62.0375 76.5625 71.0938ZM134.87 103.906C135.83 105.569 136.336 107.455 136.336 109.375C136.336 111.295 135.83 113.181 134.87 114.844C130.071 123.16 123.167 130.066 114.851 134.866C106.535 139.666 97.1017 142.191 87.5 142.188C77.9001 142.189 68.469 139.663 60.1553 134.863C51.8417 130.063 44.9386 123.159 40.1406 114.844C39.1811 113.182 38.6758 111.297 38.6753 109.378C38.6748 107.459 39.1792 105.573 40.1378 103.911C41.0965 102.249 42.4756 100.868 44.1367 99.907C45.7979 98.9463 47.6826 98.4395 49.6016 98.4375H125.398C127.318 98.4375 129.204 98.9429 130.867 99.9029C132.53 100.863 133.91 102.244 134.87 103.906ZM115.773 73.6641C113.969 72.5047 111.759 71.0938 109.375 71.0938C106.991 71.0938 104.781 72.5156 102.977 73.6641C100.231 75.425 98.4375 76.5625 98.4375 71.0938C98.4375 62.0375 103.338 54.6875 109.375 54.6875C115.412 54.6875 120.312 62.0375 120.312 71.0938C120.312 76.5734 118.519 75.425 115.773 73.6641Z" fill="#6a62f5"/>
</svg>
